<svg width="600" height="626" viewBox="0 0 600 626" fill="none" xmlns="http://www.w3.org/2000/svg">
<g clip-path="url(#clip0_76_3895)">
<circle cx="304.975" cy="314.836" r="277.114" fill="#E3EEFD"/>
<path d="M298.075 12.0392C297.332 12.4717 297.332 13.553 298.075 13.9856L313.506 22.9721C314.249 23.4047 315.178 22.864 315.178 21.9989L315.178 4.02583C315.178 3.16076 314.249 2.62008 313.506 3.05262L298.075 12.0392Z" fill="#6FD6BD"/>
<path d="M608.739 287.473C595.177 134.951 469.332 14.7205 314.428 10.0044V16.9729C465.484 21.6798 588.212 138.801 601.745 287.473H608.739Z" fill="url(#paint0_linear_76_3895)"/>
<path d="M313.621 615.025C314.363 615.457 314.363 616.538 313.621 616.971L298.189 625.957C297.446 626.39 296.518 625.849 296.518 624.984L296.518 607.011C296.518 606.146 297.446 605.605 298.189 606.038L313.621 615.025Z" fill="#3E8BF3"/>
<path d="M0 314.836C0 306.291 0.351374 297.829 1.04046 289.463H8.03016C7.32494 297.827 6.96517 306.289 6.96517 314.836C6.96517 477.927 137.976 610.419 300.497 612.813V619.779C134.129 617.384 0 481.774 0 314.836Z" fill="url(#paint1_linear_76_3895)"/>
<g filter="url(#filter0_dd_76_3895)">
<rect x="77.6123" y="74.5374" width="455.215" height="479.602" rx="9.30594" fill="white"/>
</g>
<rect x="195" y="495" width="222" height="41" rx="6.20396" fill="#3E8BF3"/>
<path d="M265.305 513.338H263.616C263.585 513.12 263.522 512.925 263.427 512.756C263.332 512.584 263.21 512.437 263.061 512.316C262.912 512.196 262.739 512.103 262.544 512.039C262.351 511.974 262.142 511.942 261.916 511.942C261.507 511.942 261.151 512.044 260.848 512.247C260.544 512.447 260.309 512.74 260.142 513.126C259.975 513.509 259.892 513.974 259.892 514.522C259.892 515.085 259.975 515.557 260.142 515.94C260.312 516.323 260.548 516.613 260.852 516.808C261.155 517.003 261.506 517.101 261.904 517.101C262.128 517.101 262.335 517.071 262.525 517.012C262.718 516.953 262.889 516.867 263.038 516.754C263.187 516.638 263.31 516.498 263.408 516.334C263.508 516.169 263.577 515.982 263.616 515.771L265.305 515.779C265.261 516.141 265.152 516.49 264.977 516.827C264.805 517.161 264.572 517.461 264.279 517.726C263.989 517.988 263.642 518.196 263.238 518.35C262.837 518.502 262.384 518.578 261.877 518.578C261.173 518.578 260.543 518.418 259.988 518.099C259.435 517.781 258.998 517.319 258.677 516.715C258.358 516.111 258.199 515.38 258.199 514.522C258.199 513.661 258.361 512.928 258.685 512.324C259.009 511.72 259.448 511.26 260.003 510.944C260.559 510.625 261.183 510.466 261.877 510.466C262.335 510.466 262.759 510.53 263.149 510.658C263.543 510.787 263.891 510.975 264.194 511.221C264.498 511.466 264.744 511.765 264.935 512.12C265.127 512.474 265.251 512.88 265.305 513.338ZM269.147 518.585C268.548 518.585 268.03 518.458 267.593 518.204C267.158 517.947 266.823 517.589 266.587 517.132C266.35 516.672 266.232 516.138 266.232 515.532C266.232 514.92 266.35 514.385 266.587 513.928C266.823 513.468 267.158 513.111 267.593 512.856C268.03 512.599 268.548 512.471 269.147 512.471C269.745 512.471 270.262 512.599 270.696 512.856C271.133 513.111 271.47 513.468 271.707 513.928C271.943 514.385 272.061 514.92 272.061 515.532C272.061 516.138 271.943 516.672 271.707 517.132C271.47 517.589 271.133 517.947 270.696 518.204C270.262 518.458 269.745 518.585 269.147 518.585ZM269.154 517.313C269.427 517.313 269.654 517.236 269.837 517.082C270.019 516.925 270.157 516.712 270.249 516.442C270.344 516.172 270.392 515.865 270.392 515.52C270.392 515.176 270.344 514.869 270.249 514.599C270.157 514.329 270.019 514.116 269.837 513.959C269.654 513.802 269.427 513.724 269.154 513.724C268.879 513.724 268.648 513.802 268.46 513.959C268.275 514.116 268.135 514.329 268.04 514.599C267.948 514.869 267.901 515.176 267.901 515.52C267.901 515.865 267.948 516.172 268.04 516.442C268.135 516.712 268.275 516.925 268.46 517.082C268.648 517.236 268.879 517.313 269.154 517.313ZM274.772 515.046V518.47H273.129V512.548H274.695V513.592H274.764C274.895 513.248 275.115 512.976 275.423 512.775C275.732 512.572 276.106 512.471 276.545 512.471C276.956 512.471 277.315 512.56 277.621 512.74C277.927 512.92 278.164 513.177 278.334 513.512C278.504 513.843 278.589 514.239 278.589 514.699V518.47H276.946V514.992C276.949 514.63 276.856 514.347 276.669 514.144C276.481 513.938 276.223 513.835 275.894 513.835C275.673 513.835 275.477 513.883 275.308 513.978C275.141 514.073 275.009 514.212 274.914 514.394C274.822 514.574 274.774 514.792 274.772 515.046ZM283.033 512.548V513.781H279.467V512.548H283.033ZM280.276 511.129H281.919V516.65C281.919 516.801 281.942 516.92 281.988 517.005C282.034 517.087 282.099 517.145 282.181 517.178C282.266 517.211 282.363 517.228 282.474 517.228C282.551 517.228 282.628 517.222 282.705 517.209C282.782 517.193 282.841 517.182 282.883 517.174L283.141 518.396C283.059 518.422 282.943 518.452 282.794 518.485C282.645 518.521 282.464 518.543 282.25 518.551C281.854 518.566 281.507 518.513 281.209 518.392C280.914 518.272 280.684 518.084 280.519 517.83C280.355 517.575 280.274 517.254 280.276 516.866V511.129ZM284.103 518.47V512.548H285.745V518.47H284.103ZM284.928 511.784C284.684 511.784 284.474 511.703 284.299 511.541C284.127 511.377 284.041 511.18 284.041 510.951C284.041 510.725 284.127 510.531 284.299 510.369C284.474 510.205 284.684 510.123 284.928 510.123C285.172 510.123 285.38 510.205 285.552 510.369C285.727 510.531 285.815 510.725 285.815 510.951C285.815 511.18 285.727 511.377 285.552 511.541C285.38 511.703 285.172 511.784 284.928 511.784ZM288.703 515.046V518.47H287.061V512.548H288.626V513.592H288.696C288.827 513.248 289.046 512.976 289.355 512.775C289.663 512.572 290.037 512.471 290.477 512.471C290.888 512.471 291.247 512.56 291.553 512.74C291.858 512.92 292.096 513.177 292.266 513.512C292.435 513.843 292.52 514.239 292.52 514.699V518.47H290.878V514.992C290.88 514.63 290.788 514.347 290.6 514.144C290.413 513.938 290.154 513.835 289.825 513.835C289.604 513.835 289.409 513.883 289.239 513.978C289.072 514.073 288.941 514.212 288.846 514.394C288.753 514.574 288.706 514.792 288.703 515.046ZM297.612 515.948V512.548H299.255V518.47H297.678V517.394H297.616C297.482 517.741 297.26 518.02 296.949 518.231C296.641 518.441 296.264 518.547 295.82 518.547C295.424 518.547 295.075 518.457 294.775 518.277C294.474 518.097 294.239 517.841 294.069 517.51C293.902 517.178 293.817 516.781 293.815 516.318V512.548H295.457V516.025C295.46 516.375 295.553 516.651 295.739 516.854C295.924 517.057 296.172 517.159 296.483 517.159C296.681 517.159 296.866 517.114 297.038 517.024C297.21 516.931 297.349 516.795 297.454 516.615C297.562 516.435 297.615 516.213 297.612 515.948ZM303.267 518.585C302.658 518.585 302.134 518.462 301.694 518.215C301.257 517.966 300.921 517.614 300.684 517.159C300.448 516.701 300.329 516.16 300.329 515.536C300.329 514.926 300.448 514.392 300.684 513.932C300.921 513.472 301.253 513.113 301.683 512.856C302.114 512.599 302.621 512.471 303.202 512.471C303.592 512.471 303.956 512.534 304.293 512.659C304.632 512.783 304.928 512.969 305.18 513.218C305.434 513.468 305.632 513.781 305.773 514.159C305.915 514.534 305.985 514.974 305.985 515.478V515.929H300.985V514.911H304.439C304.439 514.675 304.388 514.465 304.285 514.283C304.182 514.1 304.04 513.957 303.857 513.855C303.677 513.749 303.468 513.697 303.229 513.697C302.979 513.697 302.758 513.754 302.566 513.87C302.375 513.983 302.226 514.136 302.118 514.329C302.01 514.519 301.955 514.731 301.953 514.965V515.933C301.953 516.226 302.007 516.479 302.114 516.692C302.225 516.906 302.381 517.07 302.581 517.186C302.781 517.301 303.019 517.359 303.294 517.359C303.477 517.359 303.644 517.334 303.795 517.282C303.947 517.231 304.077 517.154 304.185 517.051C304.293 516.948 304.375 516.822 304.432 516.673L305.951 516.773C305.874 517.138 305.715 517.457 305.476 517.729C305.24 517.999 304.934 518.21 304.559 518.362C304.186 518.511 303.756 518.585 303.267 518.585ZM309.3 511.95V510.574H315.785V511.95H313.368V518.47H311.717V511.95H309.3ZM316.207 518.47V512.548H317.799V513.581H317.861C317.969 513.213 318.15 512.936 318.405 512.748C318.659 512.558 318.952 512.463 319.284 512.463C319.366 512.463 319.455 512.468 319.55 512.478C319.645 512.489 319.728 512.503 319.8 512.521V513.978C319.723 513.955 319.617 513.934 319.48 513.916C319.344 513.898 319.219 513.889 319.106 513.889C318.865 513.889 318.649 513.942 318.459 514.047C318.271 514.15 318.122 514.294 318.011 514.479C317.903 514.664 317.85 514.878 317.85 515.119V518.47H316.207ZM322.169 518.581C321.791 518.581 321.454 518.516 321.158 518.385C320.863 518.251 320.629 518.055 320.457 517.795C320.287 517.533 320.202 517.206 320.202 516.816C320.202 516.487 320.263 516.21 320.384 515.987C320.504 515.763 320.669 515.583 320.877 515.447C321.085 515.311 321.322 515.208 321.586 515.139C321.854 515.069 322.134 515.02 322.427 514.992C322.771 514.956 323.049 514.923 323.26 514.892C323.47 514.858 323.623 514.81 323.718 514.745C323.814 514.681 323.861 514.586 323.861 514.46V514.437C323.861 514.193 323.784 514.004 323.63 513.87C323.478 513.736 323.262 513.67 322.982 513.67C322.686 513.67 322.451 513.735 322.277 513.866C322.102 513.995 321.986 514.157 321.93 514.352L320.41 514.229C320.488 513.869 320.639 513.558 320.865 513.296C321.092 513.031 321.383 512.828 321.741 512.686C322.1 512.543 322.517 512.471 322.99 512.471C323.319 512.471 323.634 512.509 323.934 512.586C324.238 512.663 324.506 512.783 324.74 512.945C324.977 513.107 325.163 513.315 325.299 513.569C325.435 513.821 325.504 514.123 325.504 514.475V518.47H323.946V517.648H323.9C323.805 517.833 323.677 517.997 323.518 518.138C323.359 518.277 323.167 518.386 322.944 518.466C322.72 518.543 322.462 518.581 322.169 518.581ZM322.639 517.448C322.881 517.448 323.094 517.4 323.279 517.305C323.464 517.208 323.609 517.077 323.715 516.912C323.82 516.748 323.873 516.561 323.873 516.353V515.725C323.821 515.758 323.751 515.789 323.661 515.817C323.573 515.843 323.474 515.867 323.364 515.89C323.253 515.911 323.143 515.93 323.032 515.948C322.922 515.964 322.821 515.978 322.731 515.991C322.539 516.019 322.37 516.064 322.226 516.125C322.082 516.187 321.971 516.271 321.891 516.376C321.811 516.479 321.771 516.607 321.771 516.762C321.771 516.985 321.852 517.156 322.014 517.274C322.179 517.39 322.387 517.448 322.639 517.448ZM328.42 515.046V518.47H326.778V512.548H328.343V513.592H328.412C328.544 513.248 328.763 512.976 329.072 512.775C329.38 512.572 329.754 512.471 330.194 512.471C330.605 512.471 330.963 512.56 331.269 512.74C331.575 512.92 331.813 513.177 331.983 513.512C332.152 513.843 332.237 514.239 332.237 514.699V518.47H330.595V514.992C330.597 514.63 330.505 514.347 330.317 514.144C330.129 513.938 329.871 513.835 329.542 513.835C329.321 513.835 329.126 513.883 328.956 513.978C328.789 514.073 328.658 514.212 328.563 514.394C328.47 514.574 328.423 514.792 328.42 515.046ZM338.459 514.236L336.955 514.329C336.929 514.2 336.874 514.085 336.789 513.982C336.705 513.876 336.593 513.793 336.454 513.731C336.318 513.667 336.155 513.635 335.964 513.635C335.71 513.635 335.495 513.689 335.32 513.797C335.146 513.902 335.058 514.044 335.058 514.221C335.058 514.362 335.115 514.482 335.228 514.579C335.341 514.677 335.535 514.756 335.81 514.815L336.882 515.031C337.458 515.149 337.887 515.339 338.17 515.601C338.452 515.863 338.594 516.208 338.594 516.634C338.594 517.023 338.479 517.363 338.251 517.656C338.024 517.949 337.713 518.178 337.318 518.342C336.924 518.504 336.471 518.585 335.957 518.585C335.173 518.585 334.548 518.422 334.083 518.096C333.62 517.767 333.349 517.319 333.269 516.754L334.885 516.669C334.934 516.908 335.052 517.091 335.24 517.217C335.427 517.34 335.667 517.402 335.96 517.402C336.248 517.402 336.48 517.346 336.654 517.236C336.832 517.123 336.922 516.978 336.924 516.8C336.922 516.651 336.859 516.529 336.735 516.434C336.612 516.336 336.422 516.262 336.165 516.21L335.139 516.006C334.561 515.89 334.13 515.69 333.848 515.405C333.568 515.119 333.427 514.756 333.427 514.313C333.427 513.933 333.53 513.605 333.736 513.33C333.944 513.055 334.236 512.843 334.611 512.694C334.989 512.545 335.431 512.471 335.937 512.471C336.685 512.471 337.274 512.629 337.703 512.945C338.135 513.261 338.387 513.691 338.459 514.236ZM342.813 512.548V513.781H339.158V512.548H342.813ZM339.994 518.47V512.12C339.994 511.69 340.078 511.334 340.245 511.052C340.414 510.769 340.646 510.557 340.939 510.416C341.232 510.274 341.565 510.204 341.937 510.204C342.189 510.204 342.419 510.223 342.627 510.261C342.838 510.3 342.995 510.335 343.098 510.365L342.805 511.599C342.741 511.579 342.661 511.559 342.566 511.541C342.473 511.523 342.378 511.514 342.281 511.514C342.039 511.514 341.871 511.571 341.775 511.684C341.68 511.795 341.633 511.95 341.633 512.151V518.47H339.994ZM346.303 518.585C345.694 518.585 345.169 518.462 344.73 518.215C344.293 517.966 343.956 517.614 343.72 517.159C343.483 516.701 343.365 516.16 343.365 515.536C343.365 514.926 343.483 514.392 343.72 513.932C343.956 513.472 344.289 513.113 344.718 512.856C345.15 512.599 345.656 512.471 346.237 512.471C346.628 512.471 346.992 512.534 347.328 512.659C347.668 512.783 347.963 512.969 348.215 513.218C348.469 513.468 348.667 513.781 348.809 514.159C348.95 514.534 349.021 514.974 349.021 515.478V515.929H344.02V514.911H347.475C347.475 514.675 347.423 514.465 347.321 514.283C347.218 514.1 347.075 513.957 346.893 513.855C346.713 513.749 346.503 513.697 346.264 513.697C346.015 513.697 345.794 513.754 345.601 513.87C345.411 513.983 345.262 514.136 345.154 514.329C345.046 514.519 344.991 514.731 344.988 514.965V515.933C344.988 516.226 345.042 516.479 345.15 516.692C345.26 516.906 345.416 517.07 345.616 517.186C345.817 517.301 346.055 517.359 346.33 517.359C346.512 517.359 346.679 517.334 346.831 517.282C346.983 517.231 347.112 517.154 347.22 517.051C347.328 516.948 347.41 516.822 347.467 516.673L348.986 516.773C348.909 517.138 348.751 517.457 348.512 517.729C348.275 517.999 347.97 518.21 347.594 518.362C347.222 518.511 346.791 518.585 346.303 518.585ZM350.093 518.47V512.548H351.685V513.581H351.747C351.855 513.213 352.036 512.936 352.29 512.748C352.545 512.558 352.838 512.463 353.169 512.463C353.251 512.463 353.34 512.468 353.435 512.478C353.53 512.489 353.614 512.503 353.686 512.521V513.978C353.609 513.955 353.502 513.934 353.366 513.916C353.23 513.898 353.105 513.889 352.992 513.889C352.75 513.889 352.534 513.942 352.344 514.047C352.157 514.15 352.007 514.294 351.897 514.479C351.789 514.664 351.735 514.878 351.735 515.119V518.47H350.093Z" fill="white"/>
<rect x="97.2197" y="284.265" width="417.216" height="189.221" rx="12.4079" fill="#F5F9FE"/>
<path d="M118.724 347.468H492.512" stroke="#CFDBD5" stroke-opacity="0.6" stroke-width="1.16126" stroke-linecap="square"/>
<path d="M118.724 406.406H492.512" stroke="#CFDBD5" stroke-opacity="0.6" stroke-width="1.16126" stroke-linecap="square"/>
<g clip-path="url(#clip1_76_3895)">
<path d="M213.442 380.367V374.907H214.822V380.367H213.442ZM211.402 378.327V376.947H216.862V378.327H211.402ZM221.319 373.566C221.725 373.566 222.115 373.634 222.491 373.77C222.869 373.906 223.205 374.123 223.501 374.422C223.799 374.72 224.034 375.116 224.206 375.609C224.381 376.1 224.47 376.703 224.472 377.417C224.472 378.088 224.397 378.687 224.245 379.214C224.096 379.738 223.881 380.184 223.601 380.552C223.321 380.919 222.983 381.199 222.587 381.392C222.191 381.582 221.749 381.678 221.261 381.678C220.734 381.678 220.269 381.576 219.865 381.373C219.462 381.167 219.136 380.888 218.89 380.536C218.646 380.182 218.498 379.783 218.446 379.341H220.093C220.157 379.629 220.292 379.853 220.497 380.012C220.703 380.169 220.957 380.247 221.261 380.247C221.775 380.247 222.166 380.024 222.433 379.576C222.7 379.127 222.835 378.511 222.838 377.73H222.784C222.665 377.961 222.506 378.16 222.306 378.327C222.105 378.492 221.875 378.619 221.615 378.709C221.358 378.799 221.085 378.844 220.794 378.844C220.329 378.844 219.914 378.735 219.549 378.516C219.184 378.298 218.896 377.997 218.685 377.614C218.475 377.231 218.369 376.794 218.369 376.303C218.367 375.774 218.489 375.302 218.735 374.888C218.982 374.474 219.327 374.15 219.769 373.917C220.213 373.68 220.73 373.563 221.319 373.566ZM221.33 374.877C221.071 374.877 220.839 374.938 220.636 375.062C220.436 375.185 220.276 375.351 220.158 375.559C220.042 375.767 219.986 376 219.988 376.257C219.988 376.516 220.045 376.75 220.158 376.958C220.274 377.164 220.431 377.329 220.628 377.452C220.829 377.573 221.058 377.633 221.315 377.633C221.508 377.633 221.686 377.597 221.851 377.525C222.015 377.453 222.158 377.354 222.279 377.228C222.402 377.1 222.498 376.952 222.568 376.785C222.637 376.618 222.672 376.441 222.672 376.253C222.669 376.004 222.61 375.775 222.495 375.567C222.379 375.358 222.22 375.191 222.016 375.065C221.813 374.94 221.585 374.877 221.33 374.877ZM228.486 373.566C228.892 373.566 229.283 373.634 229.658 373.77C230.036 373.906 230.372 374.123 230.668 374.422C230.966 374.72 231.201 375.116 231.374 375.609C231.548 376.1 231.637 376.703 231.64 377.417C231.64 378.088 231.564 378.687 231.412 379.214C231.263 379.738 231.048 380.184 230.768 380.552C230.488 380.919 230.15 381.199 229.754 381.392C229.359 381.582 228.916 381.678 228.428 381.678C227.901 381.678 227.436 381.576 227.032 381.373C226.629 381.167 226.304 380.888 226.057 380.536C225.813 380.182 225.665 379.783 225.614 379.341H227.26C227.324 379.629 227.459 379.853 227.665 380.012C227.87 380.169 228.125 380.247 228.428 380.247C228.942 380.247 229.333 380.024 229.6 379.576C229.867 379.127 230.002 378.511 230.005 377.73H229.951C229.833 377.961 229.673 378.16 229.473 378.327C229.272 378.492 229.042 378.619 228.783 378.709C228.526 378.799 228.252 378.844 227.962 378.844C227.496 378.844 227.081 378.735 226.716 378.516C226.351 378.298 226.063 377.997 225.853 377.614C225.642 377.231 225.536 376.794 225.536 376.303C225.534 375.774 225.656 375.302 225.903 374.888C226.149 374.474 226.494 374.15 226.936 373.917C227.381 373.68 227.897 373.563 228.486 373.566ZM228.497 374.877C228.238 374.877 228.007 374.938 227.803 375.062C227.603 375.185 227.444 375.351 227.325 375.559C227.21 375.767 227.153 376 227.156 376.257C227.156 376.516 227.212 376.75 227.325 376.958C227.441 377.164 227.598 377.329 227.796 377.452C227.996 377.573 228.225 377.633 228.482 377.633C228.675 377.633 228.853 377.597 229.018 377.525C229.182 377.453 229.325 377.354 229.446 377.228C229.569 377.1 229.666 376.952 229.735 376.785C229.804 376.618 229.839 376.441 229.839 376.253C229.837 376.004 229.777 375.775 229.662 375.567C229.546 375.358 229.387 375.191 229.184 375.065C228.981 374.94 228.752 374.877 228.497 374.877ZM235.68 381.678C235.135 381.678 234.649 381.577 234.223 381.377C233.799 381.176 233.462 380.9 233.213 380.548C232.963 380.196 232.834 379.792 232.823 379.337H234.443C234.461 379.643 234.589 379.891 234.828 380.081C235.067 380.272 235.351 380.367 235.68 380.367C235.942 380.367 236.174 380.309 236.374 380.193C236.577 380.075 236.735 379.912 236.848 379.704C236.964 379.493 237.022 379.251 237.022 378.979C237.022 378.701 236.963 378.457 236.844 378.246C236.729 378.035 236.568 377.871 236.363 377.753C236.157 377.634 235.922 377.574 235.657 377.571C235.426 377.571 235.201 377.619 234.982 377.714C234.766 377.809 234.598 377.939 234.477 378.104L232.993 377.838L233.367 373.674H238.194V375.038H234.743L234.539 377.016H234.585C234.724 376.821 234.933 376.659 235.214 376.531C235.494 376.402 235.807 376.338 236.154 376.338C236.63 376.338 237.054 376.45 237.427 376.673C237.799 376.897 238.094 377.204 238.31 377.595C238.525 377.983 238.632 378.43 238.63 378.936C238.632 379.468 238.509 379.941 238.259 380.355C238.013 380.766 237.667 381.09 237.222 381.327C236.78 381.561 236.266 381.678 235.68 381.678ZM245.191 381.678C244.646 381.678 244.16 381.577 243.733 381.377C243.309 381.176 242.972 380.9 242.723 380.548C242.474 380.196 242.344 379.792 242.334 379.337H243.953C243.971 379.643 244.099 379.891 244.339 380.081C244.578 380.272 244.862 380.367 245.191 380.367C245.453 380.367 245.684 380.309 245.885 380.193C246.088 380.075 246.246 379.912 246.359 379.704C246.474 379.493 246.532 379.251 246.532 378.979C246.532 378.701 246.473 378.457 246.355 378.246C246.239 378.035 246.079 377.871 245.873 377.753C245.667 377.634 245.432 377.574 245.167 377.571C244.936 377.571 244.711 377.619 244.493 377.714C244.277 377.809 244.108 377.939 243.988 378.104L242.503 377.838L242.877 373.674H247.704V375.038H244.254L244.049 377.016H244.096C244.234 376.821 244.444 376.659 244.724 376.531C245.004 376.402 245.318 376.338 245.665 376.338C246.14 376.338 246.564 376.45 246.937 376.673C247.31 376.897 247.604 377.204 247.82 377.595C248.036 377.983 248.143 378.43 248.14 378.936C248.143 379.468 248.019 379.941 247.77 380.355C247.523 380.766 247.177 381.09 246.733 381.327C246.291 381.561 245.777 381.678 245.191 381.678ZM252.161 373.566C252.567 373.566 252.958 373.634 253.333 373.77C253.711 373.906 254.048 374.123 254.343 374.422C254.642 374.72 254.877 375.116 255.049 375.609C255.224 376.1 255.312 376.703 255.315 377.417C255.315 378.088 255.239 378.687 255.087 379.214C254.938 379.738 254.724 380.184 254.444 380.552C254.163 380.919 253.825 381.199 253.43 381.392C253.034 381.582 252.592 381.678 252.103 381.678C251.576 381.678 251.111 381.576 250.708 381.373C250.304 381.167 249.979 380.888 249.732 380.536C249.488 380.182 249.34 379.783 249.289 379.341H250.935C250.999 379.629 251.134 379.853 251.34 380.012C251.546 380.169 251.8 380.247 252.103 380.247C252.617 380.247 253.008 380.024 253.275 379.576C253.543 379.127 253.678 378.511 253.68 377.73H253.626C253.508 377.961 253.349 378.16 253.148 378.327C252.948 378.492 252.718 378.619 252.458 378.709C252.201 378.799 251.927 378.844 251.637 378.844C251.172 378.844 250.757 378.735 250.392 378.516C250.027 378.298 249.739 377.997 249.528 377.614C249.317 377.231 249.212 376.794 249.212 376.303C249.209 375.774 249.331 375.302 249.578 374.888C249.825 374.474 250.169 374.15 250.611 373.917C251.056 373.68 251.573 373.563 252.161 373.566ZM252.173 374.877C251.913 374.877 251.682 374.938 251.479 375.062C251.278 375.185 251.119 375.351 251.001 375.559C250.885 375.767 250.829 376 250.831 376.257C250.831 376.516 250.888 376.75 251.001 376.958C251.116 377.164 251.273 377.329 251.471 377.452C251.672 377.573 251.9 377.633 252.157 377.633C252.35 377.633 252.529 377.597 252.693 377.525C252.858 377.453 253 377.354 253.121 377.228C253.245 377.1 253.341 376.952 253.41 376.785C253.48 376.618 253.514 376.441 253.514 376.253C253.512 376.004 253.453 375.775 253.337 375.567C253.221 375.358 253.062 375.191 252.859 375.065C252.656 374.94 252.427 374.877 252.173 374.877ZM259.568 381.743C258.904 381.741 258.334 381.577 257.856 381.253C257.38 380.93 257.014 380.46 256.757 379.846C256.502 379.232 256.376 378.493 256.379 377.629C256.379 376.768 256.506 376.034 256.761 375.428C257.018 374.821 257.384 374.36 257.86 374.044C258.338 373.725 258.907 373.566 259.568 373.566C260.228 373.566 260.796 373.725 261.272 374.044C261.75 374.362 262.117 374.825 262.374 375.432C262.631 376.036 262.759 376.768 262.756 377.629C262.756 378.496 262.627 379.236 262.37 379.85C262.116 380.464 261.751 380.933 261.275 381.257C260.8 381.581 260.231 381.743 259.568 381.743ZM259.568 380.359C260.02 380.359 260.381 380.131 260.651 379.677C260.921 379.222 261.054 378.539 261.052 377.629C261.052 377.03 260.99 376.532 260.867 376.133C260.746 375.735 260.574 375.436 260.35 375.235C260.129 375.035 259.868 374.934 259.568 374.934C259.118 374.934 258.758 375.159 258.488 375.609C258.218 376.059 258.082 376.732 258.079 377.629C258.079 378.236 258.14 378.742 258.261 379.148C258.384 379.552 258.557 379.855 258.781 380.058C259.005 380.259 259.267 380.359 259.568 380.359ZM269.343 381.678C268.798 381.678 268.312 381.577 267.886 381.377C267.462 381.176 267.125 380.9 266.875 380.548C266.626 380.196 266.496 379.792 266.486 379.337H268.105C268.123 379.643 268.252 379.891 268.491 380.081C268.73 380.272 269.014 380.367 269.343 380.367C269.605 380.367 269.836 380.309 270.037 380.193C270.24 380.075 270.398 379.912 270.511 379.704C270.627 379.493 270.685 379.251 270.685 378.979C270.685 378.701 270.626 378.457 270.507 378.246C270.392 378.035 270.231 377.871 270.025 377.753C269.82 377.634 269.585 377.574 269.32 377.571C269.089 377.571 268.864 377.619 268.645 377.714C268.429 377.809 268.261 377.939 268.14 378.104L266.656 377.838L267.03 373.674H271.857V375.038H268.406L268.202 377.016H268.248C268.387 376.821 268.596 376.659 268.876 376.531C269.157 376.402 269.47 376.338 269.817 376.338C270.293 376.338 270.717 376.45 271.089 376.673C271.462 376.897 271.756 377.204 271.972 377.595C272.188 377.983 272.295 378.43 272.292 378.936C272.295 379.468 272.172 379.941 271.922 380.355C271.676 380.766 271.33 381.09 270.885 381.327C270.443 381.561 269.929 381.678 269.343 381.678ZM276.341 381.678C275.796 381.678 275.31 381.577 274.883 381.377C274.459 381.176 274.122 380.9 273.873 380.548C273.624 380.196 273.494 379.792 273.484 379.337H275.103C275.121 379.643 275.25 379.891 275.489 380.081C275.728 380.272 276.012 380.367 276.341 380.367C276.603 380.367 276.834 380.309 277.035 380.193C277.238 380.075 277.396 379.912 277.509 379.704C277.624 379.493 277.682 379.251 277.682 378.979C277.682 378.701 277.623 378.457 277.505 378.246C277.389 378.035 277.229 377.871 277.023 377.753C276.817 377.634 276.582 377.574 276.317 377.571C276.086 377.571 275.861 377.619 275.643 377.714C275.427 377.809 275.259 377.939 275.138 378.104L273.653 377.838L274.027 373.674H278.854V375.038H275.404L275.199 377.016H275.246C275.384 376.821 275.594 376.659 275.874 376.531C276.154 376.402 276.468 376.338 276.815 376.338C277.29 376.338 277.714 376.45 278.087 376.673C278.46 376.897 278.754 377.204 278.97 377.595C279.186 377.983 279.293 378.43 279.29 378.936C279.293 379.468 279.169 379.941 278.92 380.355C278.673 380.766 278.327 381.09 277.883 381.327C277.441 381.561 276.927 381.678 276.341 381.678ZM283.4 381.678C282.806 381.678 282.278 381.581 281.815 381.388C281.355 381.193 280.994 380.927 280.732 380.59C280.47 380.254 280.339 379.872 280.339 379.445C280.339 379.116 280.413 378.814 280.562 378.539C280.714 378.262 280.92 378.032 281.179 377.849C281.439 377.664 281.729 377.546 282.051 377.494V377.44C281.629 377.356 281.287 377.151 281.025 376.827C280.763 376.501 280.632 376.122 280.632 375.69C280.632 375.281 280.751 374.918 280.99 374.599C281.229 374.278 281.557 374.026 281.973 373.843C282.392 373.658 282.868 373.566 283.4 373.566C283.932 373.566 284.406 373.658 284.823 373.843C285.242 374.028 285.571 374.282 285.81 374.603C286.049 374.922 286.169 375.284 286.172 375.69C286.169 376.124 286.036 376.504 285.771 376.827C285.506 377.151 285.167 377.356 284.753 377.44V377.494C285.069 377.546 285.356 377.664 285.613 377.849C285.873 378.032 286.078 378.262 286.23 378.539C286.384 378.814 286.462 379.116 286.465 379.445C286.462 379.872 286.33 380.254 286.068 380.59C285.806 380.927 285.443 381.193 284.981 381.388C284.521 381.581 283.994 381.678 283.4 381.678ZM283.4 380.452C283.665 380.452 283.896 380.404 284.094 380.309C284.292 380.211 284.446 380.078 284.557 379.908C284.67 379.736 284.726 379.538 284.726 379.314C284.726 379.085 284.668 378.884 284.553 378.709C284.437 378.531 284.28 378.393 284.082 378.292C283.884 378.19 283.657 378.138 283.4 378.138C283.145 378.138 282.918 378.19 282.718 378.292C282.517 378.393 282.359 378.531 282.243 378.709C282.13 378.884 282.074 379.085 282.074 379.314C282.074 379.538 282.129 379.736 282.239 379.908C282.35 380.078 282.505 380.211 282.706 380.309C282.906 380.404 283.138 380.452 283.4 380.452ZM283.4 376.924C283.621 376.924 283.818 376.879 283.99 376.789C284.162 376.699 284.297 376.574 284.395 376.415C284.492 376.255 284.541 376.072 284.541 375.864C284.541 375.658 284.492 375.478 284.395 375.324C284.297 375.167 284.163 375.045 283.994 374.957C283.824 374.868 283.626 374.823 283.4 374.823C283.176 374.823 282.978 374.868 282.806 374.957C282.634 375.045 282.499 375.167 282.401 375.324C282.306 375.478 282.259 375.658 282.259 375.864C282.259 376.072 282.308 376.255 282.405 376.415C282.503 376.574 282.638 376.699 282.81 376.789C282.982 376.879 283.179 376.924 283.4 376.924ZM293.58 373.674V381.57H291.911V375.258H291.865L290.056 376.392V374.911L292.011 373.674H293.58ZM295.457 381.57V380.367L298.267 377.764C298.507 377.533 298.707 377.325 298.869 377.14C299.033 376.955 299.158 376.773 299.243 376.596C299.328 376.416 299.37 376.222 299.37 376.014C299.37 375.783 299.317 375.583 299.212 375.416C299.107 375.247 298.963 375.117 298.78 375.027C298.598 374.934 298.391 374.888 298.16 374.888C297.918 374.888 297.707 374.937 297.527 375.035C297.347 375.132 297.209 375.272 297.111 375.455C297.013 375.637 296.964 375.855 296.964 376.106H295.38C295.38 375.59 295.497 375.141 295.731 374.761C295.964 374.38 296.292 374.086 296.714 373.878C297.135 373.67 297.621 373.566 298.171 373.566C298.737 373.566 299.229 373.666 299.648 373.866C300.069 374.064 300.397 374.339 300.631 374.691C300.865 375.044 300.982 375.447 300.982 375.902C300.982 376.2 300.923 376.495 300.804 376.785C300.689 377.075 300.482 377.398 300.184 377.753C299.885 378.105 299.465 378.528 298.923 379.021L297.77 380.151V380.205H301.086V381.57H295.457ZM302.006 380.182V378.867L305.303 373.674H306.436V375.493H305.765L303.687 378.782V378.844H308.372V380.182H302.006ZM305.796 381.57V379.781L305.827 379.198V373.674H307.392V381.57H305.796Z" fill="black"/>
<path d="M122.593 375.355C122.558 375.042 122.412 374.8 122.157 374.628C121.901 374.454 121.58 374.367 121.192 374.367C120.914 374.367 120.674 374.411 120.472 374.499C120.269 374.585 120.111 374.704 119.999 374.856C119.889 375.006 119.834 375.177 119.834 375.368C119.834 375.529 119.871 375.668 119.946 375.785C120.023 375.901 120.123 375.999 120.247 376.079C120.372 376.156 120.507 376.221 120.65 376.274C120.793 376.324 120.931 376.366 121.063 376.399L121.724 376.571C121.94 376.624 122.161 376.696 122.388 376.786C122.615 376.876 122.826 376.995 123.019 377.143C123.213 377.29 123.37 377.473 123.489 377.691C123.61 377.91 123.67 378.171 123.67 378.475C123.67 378.858 123.571 379.198 123.373 379.496C123.177 379.793 122.892 380.028 122.517 380.2C122.145 380.372 121.694 380.457 121.166 380.457C120.659 380.457 120.22 380.377 119.85 380.216C119.48 380.055 119.19 379.827 118.981 379.532C118.772 379.235 118.656 378.882 118.634 378.475H119.659C119.678 378.719 119.758 378.923 119.897 379.086C120.038 379.247 120.217 379.367 120.435 379.446C120.655 379.523 120.897 379.562 121.159 379.562C121.448 379.562 121.704 379.517 121.929 379.426C122.156 379.334 122.334 379.206 122.464 379.043C122.594 378.878 122.659 378.685 122.659 378.465C122.659 378.264 122.602 378.1 122.487 377.972C122.375 377.845 122.222 377.739 122.028 377.655C121.836 377.571 121.619 377.498 121.377 377.434L120.577 377.216C120.035 377.068 119.606 376.851 119.288 376.565C118.973 376.278 118.816 375.899 118.816 375.428C118.816 375.038 118.922 374.697 119.133 374.407C119.345 374.116 119.631 373.89 119.992 373.729C120.354 373.566 120.761 373.485 121.215 373.485C121.673 373.485 122.078 373.565 122.428 373.726C122.78 373.887 123.058 374.108 123.261 374.39C123.463 374.67 123.569 374.992 123.578 375.355H122.593ZM126.999 380.448C126.499 380.448 126.068 380.341 125.707 380.127C125.348 379.911 125.07 379.608 124.874 379.218C124.68 378.826 124.583 378.367 124.583 377.84C124.583 377.32 124.68 376.862 124.874 376.465C125.07 376.069 125.343 375.759 125.694 375.537C126.046 375.314 126.458 375.203 126.93 375.203C127.216 375.203 127.494 375.25 127.762 375.345C128.031 375.44 128.272 375.589 128.486 375.791C128.7 375.994 128.868 376.257 128.992 376.581C129.115 376.903 129.177 377.294 129.177 377.754V378.105H125.142V377.364H128.209C128.209 377.104 128.156 376.874 128.05 376.674C127.944 376.471 127.795 376.311 127.604 376.194C127.414 376.078 127.192 376.019 126.936 376.019C126.659 376.019 126.416 376.088 126.209 376.224C126.004 376.359 125.846 376.535 125.733 376.753C125.623 376.969 125.568 377.203 125.568 377.457V378.035C125.568 378.374 125.628 378.663 125.747 378.901C125.868 379.139 126.036 379.321 126.252 379.446C126.468 379.57 126.72 379.631 127.009 379.631C127.196 379.631 127.367 379.605 127.521 379.552C127.675 379.497 127.809 379.415 127.921 379.307C128.033 379.199 128.119 379.066 128.179 378.908L129.114 379.076C129.039 379.351 128.905 379.593 128.711 379.8C128.519 380.005 128.278 380.164 127.987 380.279C127.699 380.391 127.369 380.448 126.999 380.448ZM131.261 377.331V380.345H130.273V375.269H131.222V376.095H131.284C131.401 375.827 131.584 375.611 131.833 375.448C132.084 375.285 132.4 375.203 132.781 375.203C133.127 375.203 133.43 375.276 133.69 375.421C133.95 375.564 134.152 375.778 134.295 376.062C134.438 376.346 134.51 376.698 134.51 377.116V380.345H133.522V377.235C133.522 376.867 133.426 376.58 133.234 376.373C133.042 376.164 132.779 376.059 132.444 376.059C132.215 376.059 132.011 376.109 131.833 376.208C131.657 376.307 131.517 376.452 131.413 376.644C131.312 376.833 131.261 377.062 131.261 377.331ZM137.735 380.444C137.325 380.444 136.96 380.34 136.638 380.13C136.319 379.919 136.067 379.618 135.884 379.228C135.704 378.836 135.614 378.366 135.614 377.817C135.614 377.268 135.705 376.799 135.888 376.409C136.073 376.019 136.326 375.721 136.648 375.514C136.97 375.307 137.334 375.203 137.742 375.203C138.057 375.203 138.31 375.256 138.502 375.362C138.696 375.465 138.845 375.586 138.951 375.725C139.059 375.864 139.143 375.986 139.202 376.092H139.262V373.577H140.25V380.345H139.285V379.555H139.202C139.143 379.663 139.057 379.787 138.945 379.925C138.834 380.064 138.682 380.185 138.489 380.289C138.295 380.392 138.044 380.444 137.735 380.444ZM137.953 379.602C138.237 379.602 138.478 379.527 138.674 379.377C138.872 379.225 139.022 379.014 139.123 378.746C139.227 378.477 139.278 378.164 139.278 377.807C139.278 377.455 139.228 377.146 139.126 376.882C139.025 376.617 138.876 376.411 138.68 376.264C138.484 376.116 138.242 376.042 137.953 376.042C137.656 376.042 137.408 376.12 137.21 376.274C137.011 376.428 136.862 376.638 136.76 376.905C136.661 377.172 136.612 377.472 136.612 377.807C136.612 378.146 136.662 378.452 136.764 378.723C136.865 378.993 137.015 379.208 137.213 379.367C137.413 379.523 137.66 379.602 137.953 379.602ZM146.492 375.269V376.062H143.72V375.269H146.492ZM144.463 374.053H145.451V378.855C145.451 379.046 145.48 379.191 145.537 379.288C145.595 379.382 145.668 379.447 145.759 379.483C145.851 379.516 145.952 379.532 146.06 379.532C146.139 379.532 146.208 379.527 146.268 379.516C146.327 379.505 146.373 379.496 146.407 379.489L146.585 380.305C146.528 380.327 146.446 380.349 146.34 380.372C146.235 380.396 146.103 380.409 145.944 380.411C145.684 380.416 145.442 380.369 145.217 380.272C144.992 380.175 144.81 380.026 144.672 379.823C144.533 379.62 144.463 379.366 144.463 379.06V374.053ZM149.669 380.448C149.193 380.448 148.778 380.338 148.423 380.12C148.069 379.902 147.793 379.597 147.597 379.205C147.401 378.813 147.303 378.355 147.303 377.83C147.303 377.304 147.401 376.843 147.597 376.449C147.793 376.055 148.069 375.748 148.423 375.53C148.778 375.312 149.193 375.203 149.669 375.203C150.145 375.203 150.56 375.312 150.915 375.53C151.27 375.748 151.545 376.055 151.741 376.449C151.937 376.843 152.035 377.304 152.035 377.83C152.035 378.355 151.937 378.813 151.741 379.205C151.545 379.597 151.27 379.902 150.915 380.12C150.56 380.338 150.145 380.448 149.669 380.448ZM149.672 379.618C149.981 379.618 150.236 379.537 150.439 379.374C150.642 379.21 150.792 378.993 150.888 378.723C150.988 378.452 151.037 378.153 151.037 377.827C151.037 377.503 150.988 377.206 150.888 376.935C150.792 376.661 150.642 376.442 150.439 376.277C150.236 376.112 149.981 376.029 149.672 376.029C149.362 376.029 149.104 376.112 148.899 376.277C148.696 376.442 148.545 376.661 148.446 376.935C148.349 377.206 148.301 377.503 148.301 377.827C148.301 378.153 148.349 378.452 148.446 378.723C148.545 378.993 148.696 379.21 148.899 379.374C149.104 379.537 149.362 379.618 149.672 379.618Z" fill="#5D5D5B"/>
</g>
<g clip-path="url(#clip2_76_3895)">
<path d="M231.291 321.857V313.961H234.452C235.033 313.961 235.518 314.047 235.906 314.219C236.294 314.391 236.586 314.63 236.781 314.936C236.976 315.239 237.074 315.589 237.074 315.985C237.074 316.293 237.012 316.564 236.889 316.798C236.766 317.03 236.596 317.22 236.38 317.369C236.167 317.515 235.922 317.62 235.647 317.681V317.758C235.948 317.771 236.23 317.856 236.492 318.013C236.757 318.17 236.971 318.389 237.136 318.672C237.3 318.952 237.382 319.286 237.382 319.675C237.382 320.093 237.278 320.467 237.07 320.796C236.864 321.123 236.56 321.381 236.156 321.571C235.753 321.762 235.255 321.857 234.664 321.857H231.291ZM232.96 320.492H234.321C234.786 320.492 235.126 320.403 235.339 320.226C235.552 320.046 235.659 319.807 235.659 319.509C235.659 319.29 235.606 319.097 235.501 318.93C235.396 318.763 235.245 318.632 235.05 318.537C234.857 318.442 234.627 318.395 234.36 318.395H232.96V320.492ZM232.96 317.265H234.198C234.427 317.265 234.63 317.225 234.807 317.145C234.987 317.063 235.128 316.947 235.231 316.798C235.336 316.649 235.389 316.471 235.389 316.262C235.389 315.977 235.288 315.747 235.085 315.572C234.884 315.398 234.599 315.31 234.229 315.31H232.96V317.265ZM238.438 321.857V315.935H240.08V321.857H238.438ZM239.263 315.171C239.019 315.171 238.809 315.09 238.634 314.928C238.462 314.764 238.376 314.567 238.376 314.339C238.376 314.112 238.462 313.918 238.634 313.756C238.809 313.592 239.019 313.51 239.263 313.51C239.507 313.51 239.715 313.592 239.887 313.756C240.062 313.918 240.15 314.112 240.15 314.339C240.15 314.567 240.062 314.764 239.887 314.928C239.715 315.09 239.507 315.171 239.263 315.171ZM244.546 315.935V317.168H240.98V315.935H244.546ZM241.789 314.516H243.432V320.037C243.432 320.189 243.455 320.307 243.501 320.392C243.547 320.474 243.612 320.532 243.694 320.565C243.779 320.599 243.876 320.615 243.987 320.615C244.064 320.615 244.141 320.609 244.218 320.596C244.295 320.581 244.354 320.569 244.395 320.561L244.654 321.783C244.572 321.809 244.456 321.839 244.307 321.872C244.158 321.908 243.976 321.93 243.763 321.938C243.367 321.953 243.02 321.9 242.722 321.78C242.427 321.659 242.197 321.471 242.032 321.217C241.868 320.962 241.787 320.641 241.789 320.253V314.516ZM248.228 321.972C247.621 321.972 247.099 321.844 246.662 321.587C246.228 321.327 245.894 320.967 245.66 320.507C245.429 320.047 245.313 319.518 245.313 318.919C245.313 318.312 245.43 317.78 245.664 317.323C245.9 316.863 246.236 316.504 246.67 316.247C247.105 315.987 247.621 315.858 248.22 315.858C248.737 315.858 249.189 315.951 249.577 316.139C249.965 316.327 250.272 316.59 250.499 316.929C250.725 317.269 250.849 317.667 250.873 318.125H249.323C249.279 317.829 249.163 317.591 248.976 317.411C248.791 317.229 248.548 317.138 248.247 317.138C247.993 317.138 247.77 317.207 247.58 317.346C247.392 317.482 247.246 317.681 247.141 317.943C247.035 318.206 246.982 318.523 246.982 318.896C246.982 319.274 247.034 319.595 247.137 319.86C247.242 320.124 247.39 320.326 247.58 320.465C247.77 320.604 247.993 320.673 248.247 320.673C248.435 320.673 248.603 320.635 248.752 320.557C248.904 320.48 249.028 320.368 249.126 320.222C249.226 320.073 249.292 319.894 249.323 319.686H250.873C250.847 320.138 250.724 320.537 250.502 320.881C250.284 321.223 249.982 321.49 249.596 321.683C249.211 321.876 248.755 321.972 248.228 321.972ZM254.6 321.972C254.001 321.972 253.483 321.845 253.046 321.591C252.612 321.334 252.276 320.976 252.04 320.519C251.803 320.059 251.685 319.525 251.685 318.919C251.685 318.307 251.803 317.772 252.04 317.315C252.276 316.855 252.612 316.498 253.046 316.243C253.483 315.986 254.001 315.858 254.6 315.858C255.199 315.858 255.715 315.986 256.15 316.243C256.587 316.498 256.923 316.855 257.16 317.315C257.396 317.772 257.515 318.307 257.515 318.919C257.515 319.525 257.396 320.059 257.16 320.519C256.923 320.976 256.587 321.334 256.15 321.591C255.715 321.845 255.199 321.972 254.6 321.972ZM254.608 320.7C254.88 320.7 255.107 320.623 255.29 320.469C255.472 320.312 255.61 320.099 255.702 319.829C255.798 319.559 255.845 319.252 255.845 318.907C255.845 318.563 255.798 318.256 255.702 317.986C255.61 317.716 255.472 317.503 255.29 317.346C255.107 317.189 254.88 317.111 254.608 317.111C254.333 317.111 254.101 317.189 253.914 317.346C253.729 317.503 253.588 317.716 253.493 317.986C253.401 318.256 253.355 318.563 253.355 318.907C253.355 319.252 253.401 319.559 253.493 319.829C253.588 320.099 253.729 320.312 253.914 320.469C254.101 320.623 254.333 320.7 254.608 320.7ZM258.583 321.857V315.935H260.225V321.857H258.583ZM259.408 315.171C259.163 315.171 258.954 315.09 258.779 314.928C258.607 314.764 258.521 314.567 258.521 314.339C258.521 314.112 258.607 313.918 258.779 313.756C258.954 313.592 259.163 313.51 259.408 313.51C259.652 313.51 259.86 313.592 260.032 313.756C260.207 313.918 260.294 314.112 260.294 314.339C260.294 314.567 260.207 314.764 260.032 314.928C259.86 315.09 259.652 315.171 259.408 315.171ZM263.183 318.433V321.857H261.541V315.935H263.106V316.98H263.175C263.306 316.635 263.526 316.363 263.835 316.162C264.143 315.959 264.517 315.858 264.957 315.858C265.368 315.858 265.726 315.948 266.032 316.128C266.338 316.307 266.576 316.564 266.745 316.899C266.915 317.23 267 317.626 267 318.086V321.857H265.357V318.379C265.36 318.017 265.268 317.734 265.08 317.531C264.892 317.325 264.634 317.222 264.305 317.222C264.084 317.222 263.889 317.27 263.719 317.365C263.552 317.46 263.421 317.599 263.326 317.781C263.233 317.961 263.186 318.179 263.183 318.433Z" fill="black"/>
<path d="M489.471 314.385L486.026 317.83L482.58 314.385L481.526 315.44L486.026 319.94L490.526 315.44L489.471 314.385Z" fill="black"/>
<path d="M118.902 320.632V313.864H121.314C121.841 313.864 122.277 313.96 122.623 314.152C122.969 314.343 123.228 314.605 123.399 314.938C123.571 315.269 123.657 315.641 123.657 316.055C123.657 316.472 123.57 316.846 123.396 317.179C123.224 317.509 122.964 317.771 122.616 317.965C122.27 318.157 121.835 318.253 121.311 318.253H119.652V317.387H121.218C121.551 317.387 121.821 317.33 122.028 317.215C122.235 317.098 122.387 316.94 122.484 316.739C122.581 316.539 122.629 316.311 122.629 316.055C122.629 315.8 122.581 315.573 122.484 315.374C122.387 315.176 122.234 315.021 122.025 314.908C121.818 314.796 121.544 314.74 121.205 314.74H119.923V320.632H118.902ZM126.207 320.744C125.885 320.744 125.594 320.685 125.334 320.566C125.074 320.445 124.868 320.27 124.716 320.041C124.567 319.811 124.492 319.531 124.492 319.198C124.492 318.911 124.547 318.676 124.657 318.491C124.767 318.306 124.916 318.159 125.103 318.051C125.29 317.943 125.5 317.862 125.731 317.807C125.962 317.752 126.198 317.71 126.438 317.681C126.742 317.646 126.989 317.617 127.178 317.595C127.368 317.571 127.506 317.532 127.591 317.479C127.677 317.427 127.72 317.341 127.72 317.222V317.199C127.72 316.91 127.639 316.686 127.476 316.528C127.315 316.369 127.075 316.29 126.755 316.29C126.423 316.29 126.161 316.364 125.969 316.511C125.779 316.657 125.648 316.818 125.576 316.997L124.647 316.785C124.757 316.477 124.918 316.228 125.129 316.039C125.343 315.847 125.589 315.708 125.866 315.622C126.144 315.534 126.436 315.49 126.742 315.49C126.945 315.49 127.16 315.514 127.387 315.563C127.616 315.609 127.829 315.695 128.028 315.82C128.228 315.946 128.392 316.126 128.52 316.359C128.648 316.59 128.712 316.891 128.712 317.261V320.632H127.747V319.938H127.707C127.643 320.066 127.547 320.191 127.42 320.315C127.292 320.438 127.128 320.541 126.927 320.622C126.727 320.704 126.487 320.744 126.207 320.744ZM126.422 319.951C126.695 319.951 126.928 319.897 127.122 319.789C127.318 319.681 127.467 319.54 127.568 319.366C127.672 319.19 127.724 319.002 127.724 318.801V318.147C127.688 318.182 127.62 318.215 127.519 318.246C127.42 318.275 127.306 318.3 127.178 318.322C127.051 318.342 126.926 318.361 126.805 318.378C126.684 318.394 126.582 318.407 126.501 318.418C126.309 318.442 126.134 318.483 125.975 318.54C125.819 318.598 125.693 318.68 125.599 318.788C125.506 318.894 125.46 319.035 125.46 319.211C125.46 319.456 125.55 319.641 125.731 319.766C125.912 319.89 126.142 319.951 126.422 319.951ZM130.471 322.536C130.323 322.536 130.189 322.523 130.067 322.499C129.946 322.477 129.856 322.453 129.796 322.427L130.034 321.617C130.215 321.665 130.376 321.686 130.517 321.68C130.658 321.673 130.782 321.62 130.89 321.521C131 321.422 131.097 321.26 131.181 321.035L131.303 320.698L129.446 315.556H130.504L131.789 319.495H131.842L133.128 315.556H134.188L132.097 321.31C132 321.574 131.876 321.798 131.726 321.98C131.577 322.165 131.398 322.304 131.191 322.397C130.984 322.489 130.744 322.536 130.471 322.536ZM138.68 320.632L137.187 315.556H138.208L139.202 319.284H139.252L140.25 315.556H141.271L142.262 319.267H142.312L143.3 315.556H144.321L142.831 320.632H141.823L140.792 316.967H140.716L139.685 320.632H138.68ZM145.259 320.632V315.556H146.247V320.632H145.259ZM145.758 314.773C145.586 314.773 145.439 314.716 145.315 314.601C145.194 314.484 145.133 314.346 145.133 314.185C145.133 314.022 145.194 313.883 145.315 313.768C145.439 313.652 145.586 313.593 145.758 313.593C145.93 313.593 146.076 313.652 146.198 313.768C146.321 313.883 146.383 314.022 146.383 314.185C146.383 314.346 146.321 314.484 146.198 314.601C146.076 314.716 145.93 314.773 145.758 314.773ZM149.946 315.556V316.349H147.173V315.556H149.946ZM147.917 314.34H148.905V319.142C148.905 319.333 148.934 319.478 148.991 319.575C149.048 319.669 149.122 319.734 149.212 319.77C149.305 319.803 149.405 319.819 149.513 319.819C149.592 319.819 149.662 319.814 149.721 319.803C149.781 319.792 149.827 319.783 149.86 319.776L150.038 320.592C149.981 320.614 149.9 320.636 149.794 320.659C149.688 320.683 149.556 320.696 149.397 320.698C149.137 320.703 148.895 320.656 148.67 320.559C148.446 320.462 148.264 320.313 148.125 320.11C147.986 319.907 147.917 319.653 147.917 319.347V314.34ZM152.136 317.618V320.632H151.148V313.864H152.123V316.382H152.186C152.305 316.109 152.486 315.892 152.731 315.731C152.975 315.57 153.295 315.49 153.689 315.49C154.037 315.49 154.341 315.562 154.601 315.705C154.863 315.848 155.066 316.062 155.209 316.346C155.355 316.628 155.427 316.98 155.427 317.403V320.632H154.439V317.522C154.439 317.15 154.344 316.861 154.152 316.657C153.96 316.449 153.694 316.346 153.352 316.346C153.119 316.346 152.909 316.395 152.724 316.495C152.541 316.594 152.397 316.739 152.291 316.931C152.188 317.12 152.136 317.349 152.136 317.618Z" fill="#5D5D5B"/>
<path d="M224.191 319.3C223.259 323.039 219.472 325.315 215.732 324.382C211.994 323.45 209.718 319.663 210.651 315.924C211.582 312.184 215.37 309.909 219.109 310.841C222.848 311.773 225.124 315.561 224.191 319.3Z" fill="#F7931A"/>
<path fill-rule="evenodd" clip-rule="evenodd" d="M220.497 316.617C220.636 315.689 219.929 315.189 218.962 314.856L219.276 313.598L218.51 313.407L218.205 314.632C218.004 314.582 217.797 314.535 217.591 314.488L217.899 313.255L217.134 313.064L216.82 314.322C216.653 314.284 216.489 314.246 216.331 314.207L216.332 314.203L215.275 313.939L215.072 314.757C215.072 314.757 215.64 314.887 215.628 314.895C215.938 314.973 215.994 315.178 215.985 315.341L215.627 316.774C215.649 316.779 215.677 316.787 215.707 316.799L215.681 316.793C215.663 316.788 215.645 316.784 215.626 316.779L215.125 318.787C215.087 318.881 214.991 319.023 214.774 318.969C214.782 318.98 214.218 318.83 214.218 318.83L213.838 319.707L214.834 319.955C214.946 319.983 215.055 320.012 215.164 320.04L215.164 320.04C215.237 320.059 215.309 320.078 215.38 320.096L215.063 321.368L215.828 321.559L216.142 320.3C216.351 320.357 216.554 320.409 216.752 320.459L216.44 321.712L217.205 321.902L217.522 320.632C218.828 320.88 219.81 320.78 220.223 319.599C220.556 318.648 220.207 318.099 219.52 317.742C220.02 317.626 220.397 317.297 220.497 316.617ZM218.748 319.071C218.531 319.943 217.165 319.583 216.54 319.418L216.54 319.418C216.484 319.403 216.434 319.389 216.391 319.379L216.811 317.693C216.864 317.706 216.927 317.72 217 317.737C217.646 317.882 218.97 318.179 218.748 319.071ZM217.129 316.954C217.65 317.093 218.787 317.397 218.985 316.604C219.187 315.792 218.082 315.548 217.543 315.429C217.482 315.415 217.429 315.403 217.385 315.392L217.004 316.921C217.04 316.93 217.082 316.942 217.129 316.954Z" fill="white"/>
</g>
<g clip-path="url(#clip3_76_3895)">
<path d="M210.967 433.459V432.611H216.889V433.459H214.406V440.507H213.45V433.459H210.967ZM218.148 442.728C217.994 442.728 217.857 442.715 217.736 442.689C217.615 442.666 217.532 442.643 217.485 442.62L217.717 441.818C217.938 441.875 218.133 441.895 218.303 441.88C218.472 441.864 218.623 441.788 218.754 441.652C218.887 441.519 219.01 441.301 219.12 441.001L219.29 440.538L217.1 434.585H218.087L219.722 439.304H219.783L221.418 434.585H222.405L219.891 441.371C219.778 441.677 219.638 441.93 219.471 442.13C219.304 442.333 219.11 442.484 218.889 442.581C218.67 442.679 218.424 442.728 218.148 442.728ZM223.606 442.728V434.585H224.485V435.526H224.593C224.66 435.423 224.752 435.292 224.87 435.133C224.991 434.971 225.163 434.827 225.387 434.701C225.613 434.572 225.919 434.508 226.305 434.508C226.803 434.508 227.243 434.633 227.623 434.882C228.004 435.131 228.301 435.485 228.514 435.942C228.727 436.4 228.834 436.94 228.834 437.562C228.834 438.189 228.727 438.732 228.514 439.192C228.301 439.65 228.005 440.005 227.627 440.257C227.249 440.506 226.814 440.631 226.32 440.631C225.94 440.631 225.635 440.568 225.406 440.442C225.178 440.313 225.002 440.168 224.878 440.006C224.755 439.841 224.66 439.705 224.593 439.597H224.516V442.728H223.606ZM224.5 437.546C224.5 437.993 224.566 438.388 224.697 438.73C224.828 439.069 225.02 439.335 225.271 439.528C225.523 439.718 225.832 439.813 226.197 439.813C226.577 439.813 226.895 439.713 227.149 439.512C227.406 439.309 227.599 439.037 227.727 438.695C227.858 438.351 227.924 437.968 227.924 437.546C227.924 437.13 227.86 436.755 227.731 436.42C227.605 436.084 227.414 435.818 227.157 435.622C226.902 435.424 226.582 435.325 226.197 435.325C225.827 435.325 225.516 435.419 225.264 435.607C225.012 435.792 224.822 436.052 224.693 436.386C224.565 436.717 224.5 437.104 224.5 437.546ZM232.705 440.631C232.134 440.631 231.642 440.505 231.228 440.253C230.817 439.998 230.499 439.644 230.276 439.189C230.055 438.731 229.944 438.199 229.944 437.592C229.944 436.986 230.055 436.451 230.276 435.989C230.499 435.523 230.81 435.161 231.209 434.901C231.61 434.639 232.078 434.508 232.612 434.508C232.921 434.508 233.225 434.56 233.526 434.662C233.827 434.765 234.1 434.932 234.347 435.164C234.594 435.392 234.791 435.696 234.937 436.073C235.084 436.451 235.157 436.916 235.157 437.469V437.855H230.592V437.068H234.231C234.231 436.734 234.165 436.436 234.031 436.174C233.9 435.912 233.712 435.705 233.468 435.553C233.226 435.401 232.941 435.325 232.612 435.325C232.25 435.325 231.936 435.415 231.671 435.595C231.409 435.773 231.208 436.004 231.066 436.289C230.925 436.575 230.854 436.881 230.854 437.207V437.731C230.854 438.179 230.931 438.558 231.085 438.869C231.242 439.177 231.459 439.412 231.737 439.574C232.015 439.734 232.337 439.813 232.705 439.813C232.944 439.813 233.16 439.78 233.352 439.713C233.548 439.644 233.716 439.541 233.857 439.405C233.999 439.266 234.108 439.094 234.185 438.888L235.064 439.135C234.972 439.433 234.816 439.695 234.598 439.921C234.379 440.145 234.109 440.32 233.788 440.446C233.467 440.569 233.106 440.631 232.705 440.631ZM242.17 434.585V435.356H239.101V434.585H242.17ZM239.995 433.166H240.905V438.811C240.905 439.068 240.943 439.261 241.017 439.389C241.094 439.515 241.192 439.6 241.31 439.644C241.431 439.685 241.558 439.705 241.692 439.705C241.792 439.705 241.874 439.7 241.938 439.69C242.003 439.677 242.054 439.667 242.093 439.659L242.278 440.476C242.216 440.499 242.13 440.523 242.019 440.546C241.909 440.571 241.769 440.584 241.599 440.584C241.342 440.584 241.09 440.529 240.844 440.419C240.599 440.308 240.396 440.14 240.234 439.913C240.075 439.687 239.995 439.402 239.995 439.058V433.166ZM245.881 440.631C245.346 440.631 244.877 440.503 244.473 440.249C244.072 439.994 243.759 439.638 243.533 439.181C243.309 438.723 243.197 438.189 243.197 437.577C243.197 436.96 243.309 436.422 243.533 435.962C243.759 435.502 244.072 435.144 244.473 434.89C244.877 434.635 245.346 434.508 245.881 434.508C246.415 434.508 246.883 434.635 247.284 434.89C247.688 435.144 248.001 435.502 248.225 435.962C248.451 436.422 248.564 436.96 248.564 437.577C248.564 438.189 248.451 438.723 248.225 439.181C248.001 439.638 247.688 439.994 247.284 440.249C246.883 440.503 246.415 440.631 245.881 440.631ZM245.881 439.813C246.287 439.813 246.621 439.709 246.883 439.501C247.145 439.293 247.339 439.019 247.465 438.68C247.591 438.34 247.654 437.973 247.654 437.577C247.654 437.181 247.591 436.812 247.465 436.471C247.339 436.129 247.145 435.852 246.883 435.642C246.621 435.431 246.287 435.325 245.881 435.325C245.475 435.325 245.14 435.431 244.878 435.642C244.616 435.852 244.422 436.129 244.296 436.471C244.17 436.812 244.107 437.181 244.107 437.577C244.107 437.973 244.17 438.34 244.296 438.68C244.422 439.019 244.616 439.293 244.878 439.501C245.14 439.709 245.475 439.813 245.881 439.813ZM254.749 440.646C254.374 440.646 254.033 440.575 253.727 440.434C253.422 440.29 253.179 440.083 252.999 439.813C252.819 439.541 252.729 439.212 252.729 438.826C252.729 438.487 252.796 438.212 252.929 438.001C253.063 437.788 253.242 437.621 253.465 437.5C253.689 437.379 253.936 437.289 254.206 437.23C254.478 437.168 254.752 437.12 255.027 437.084C255.387 437.037 255.678 437.003 255.902 436.979C256.128 436.954 256.293 436.911 256.395 436.852C256.501 436.793 256.554 436.69 256.554 436.544V436.513C256.554 436.133 256.449 435.837 256.241 435.626C256.036 435.415 255.723 435.31 255.304 435.31C254.87 435.31 254.529 435.405 254.283 435.595C254.036 435.786 253.862 435.989 253.762 436.205L252.899 435.896C253.053 435.536 253.258 435.256 253.515 435.056C253.775 434.853 254.058 434.711 254.364 434.632C254.672 434.549 254.975 434.508 255.274 434.508C255.464 434.508 255.682 434.531 255.929 434.578C256.178 434.621 256.419 434.712 256.65 434.851C256.884 434.99 257.078 435.2 257.232 435.48C257.386 435.76 257.463 436.135 257.463 436.605V440.507H256.554V439.705H256.507C256.446 439.834 256.343 439.971 256.199 440.118C256.055 440.264 255.863 440.389 255.624 440.492C255.385 440.595 255.094 440.646 254.749 440.646ZM254.888 439.829C255.248 439.829 255.551 439.758 255.798 439.617C256.047 439.475 256.235 439.293 256.361 439.069C256.489 438.846 256.554 438.61 256.554 438.364V437.531C256.515 437.577 256.43 437.619 256.299 437.658C256.171 437.694 256.021 437.726 255.852 437.754C255.685 437.78 255.522 437.803 255.362 437.824C255.205 437.842 255.078 437.857 254.98 437.87C254.744 437.901 254.523 437.951 254.317 438.02C254.114 438.087 253.95 438.189 253.824 438.325C253.7 438.459 253.639 438.641 253.639 438.872C253.639 439.189 253.756 439.428 253.99 439.59C254.226 439.749 254.526 439.829 254.888 439.829ZM261.36 440.631C260.867 440.631 260.431 440.506 260.053 440.257C259.675 440.005 259.38 439.65 259.167 439.192C258.953 438.732 258.847 438.189 258.847 437.562C258.847 436.94 258.953 436.4 259.167 435.942C259.38 435.485 259.677 435.131 260.057 434.882C260.438 434.633 260.877 434.508 261.376 434.508C261.761 434.508 262.066 434.572 262.289 434.701C262.516 434.827 262.688 434.971 262.806 435.133C262.927 435.292 263.021 435.423 263.088 435.526H263.165V432.611H264.075V440.507H263.195V439.597H263.088C263.021 439.705 262.926 439.841 262.802 440.006C262.679 440.168 262.503 440.313 262.274 440.442C262.045 440.568 261.741 440.631 261.36 440.631ZM261.484 439.813C261.849 439.813 262.157 439.718 262.409 439.528C262.661 439.335 262.852 439.069 262.983 438.73C263.115 438.388 263.18 437.993 263.18 437.546C263.18 437.104 263.116 436.717 262.987 436.386C262.859 436.052 262.669 435.792 262.417 435.607C262.165 435.419 261.854 435.325 261.484 435.325C261.098 435.325 260.777 435.424 260.52 435.622C260.265 435.818 260.074 436.084 259.945 436.42C259.819 436.755 259.756 437.13 259.756 437.546C259.756 437.968 259.821 438.351 259.949 438.695C260.08 439.037 260.273 439.309 260.528 439.512C260.785 439.713 261.103 439.813 261.484 439.813ZM268.103 440.631C267.61 440.631 267.174 440.506 266.796 440.257C266.419 440.005 266.123 439.65 265.91 439.192C265.696 438.732 265.59 438.189 265.59 437.562C265.59 436.94 265.696 436.4 265.91 435.942C266.123 435.485 266.42 435.131 266.8 434.882C267.181 434.633 267.62 434.508 268.119 434.508C268.504 434.508 268.809 434.572 269.033 434.701C269.259 434.827 269.431 434.971 269.549 435.133C269.67 435.292 269.764 435.423 269.831 435.526H269.908V432.611H270.818V440.507H269.939V439.597H269.831C269.764 439.705 269.669 439.841 269.545 440.006C269.422 440.168 269.246 440.313 269.017 440.442C268.788 440.568 268.484 440.631 268.103 440.631ZM268.227 439.813C268.592 439.813 268.9 439.718 269.152 439.528C269.404 439.335 269.596 439.069 269.727 438.73C269.858 438.388 269.923 437.993 269.923 437.546C269.923 437.104 269.859 436.717 269.73 436.386C269.602 436.052 269.412 435.792 269.16 435.607C268.908 435.419 268.597 435.325 268.227 435.325C267.841 435.325 267.52 435.424 267.263 435.622C267.009 435.818 266.817 436.084 266.689 436.42C266.563 436.755 266.5 437.13 266.5 437.546C266.5 437.968 266.564 438.351 266.692 438.695C266.823 439.037 267.016 439.309 267.271 439.512C267.528 439.713 267.846 439.813 268.227 439.813ZM277.407 440.646C277.031 440.646 276.691 440.575 276.385 440.434C276.079 440.29 275.836 440.083 275.656 439.813C275.476 439.541 275.386 439.212 275.386 438.826C275.386 438.487 275.453 438.212 275.587 438.001C275.721 437.788 275.899 437.621 276.123 437.5C276.346 437.379 276.593 437.289 276.863 437.23C277.135 437.168 277.409 437.12 277.684 437.084C278.044 437.037 278.336 437.003 278.559 436.979C278.786 436.954 278.95 436.911 279.053 436.852C279.158 436.793 279.211 436.69 279.211 436.544V436.513C279.211 436.133 279.107 435.837 278.899 435.626C278.693 435.415 278.381 435.31 277.962 435.31C277.527 435.31 277.187 435.405 276.94 435.595C276.693 435.786 276.52 435.989 276.42 436.205L275.556 435.896C275.71 435.536 275.916 435.256 276.173 435.056C276.433 434.853 276.715 434.711 277.021 434.632C277.33 434.549 277.633 434.508 277.931 434.508C278.121 434.508 278.34 434.531 278.586 434.578C278.836 434.621 279.076 434.712 279.307 434.851C279.541 434.99 279.735 435.2 279.89 435.48C280.044 435.76 280.121 436.135 280.121 436.605V440.507H279.211V439.705H279.165C279.103 439.834 279 439.971 278.856 440.118C278.712 440.264 278.521 440.389 278.282 440.492C278.043 440.595 277.751 440.646 277.407 440.646ZM277.545 439.829C277.905 439.829 278.209 439.758 278.455 439.617C278.705 439.475 278.892 439.293 279.018 439.069C279.147 438.846 279.211 438.61 279.211 438.364V437.531C279.172 437.577 279.088 437.619 278.957 437.658C278.828 437.694 278.679 437.726 278.509 437.754C278.342 437.78 278.179 437.803 278.02 437.824C277.863 437.842 277.736 437.857 277.638 437.87C277.402 437.901 277.18 437.951 276.975 438.02C276.772 438.087 276.607 438.189 276.481 438.325C276.358 438.459 276.296 438.641 276.296 438.872C276.296 439.189 276.413 439.428 276.647 439.59C276.884 439.749 277.183 439.829 277.545 439.829ZM285.745 436.945V440.507H284.835V434.585H285.714V435.511H285.791C285.93 435.21 286.141 434.968 286.424 434.786C286.706 434.601 287.071 434.508 287.519 434.508C287.919 434.508 288.27 434.59 288.571 434.755C288.872 434.917 289.106 435.164 289.273 435.495C289.44 435.824 289.523 436.241 289.523 436.744V440.507H288.613V436.806C288.613 436.341 288.493 435.978 288.251 435.719C288.009 435.457 287.678 435.325 287.256 435.325C286.966 435.325 286.706 435.388 286.478 435.514C286.251 435.64 286.073 435.824 285.942 436.066C285.811 436.307 285.745 436.6 285.745 436.945ZM293.592 440.631C293.057 440.631 292.588 440.503 292.185 440.249C291.784 439.994 291.47 439.638 291.244 439.181C291.02 438.723 290.908 438.189 290.908 437.577C290.908 436.96 291.02 436.422 291.244 435.962C291.47 435.502 291.784 435.144 292.185 434.89C292.588 434.635 293.057 434.508 293.592 434.508C294.126 434.508 294.594 434.635 294.995 434.89C295.399 435.144 295.712 435.502 295.936 435.962C296.162 436.422 296.275 436.96 296.275 437.577C296.275 438.189 296.162 438.723 295.936 439.181C295.712 439.638 295.399 439.994 294.995 440.249C294.594 440.503 294.126 440.631 293.592 440.631ZM293.592 439.813C293.998 439.813 294.332 439.709 294.594 439.501C294.856 439.293 295.05 439.019 295.176 438.68C295.302 438.34 295.365 437.973 295.365 437.577C295.365 437.181 295.302 436.812 295.176 436.471C295.05 436.129 294.856 435.852 294.594 435.642C294.332 435.431 293.998 435.325 293.592 435.325C293.186 435.325 292.852 435.431 292.589 435.642C292.327 435.852 292.133 436.129 292.007 436.471C291.881 436.812 291.818 437.181 291.818 437.577C291.818 437.973 291.881 438.34 292.007 438.68C292.133 439.019 292.327 439.293 292.589 439.501C292.852 439.709 293.186 439.813 293.592 439.813ZM300.24 434.585V435.356H297.171V434.585H300.24ZM298.065 433.166H298.975V438.811C298.975 439.068 299.012 439.261 299.087 439.389C299.164 439.515 299.262 439.6 299.38 439.644C299.501 439.685 299.628 439.705 299.761 439.705C299.862 439.705 299.944 439.7 300.008 439.69C300.072 439.677 300.124 439.667 300.162 439.659L300.347 440.476C300.286 440.499 300.2 440.523 300.089 440.546C299.979 440.571 299.839 440.584 299.669 440.584C299.412 440.584 299.16 440.529 298.913 440.419C298.669 440.308 298.466 440.14 298.304 439.913C298.145 439.687 298.065 439.402 298.065 439.058V433.166ZM304.028 440.631C303.457 440.631 302.965 440.505 302.551 440.253C302.14 439.998 301.822 439.644 301.599 439.189C301.378 438.731 301.267 438.199 301.267 437.592C301.267 436.986 301.378 436.451 301.599 435.989C301.822 435.523 302.133 435.161 302.532 434.901C302.933 434.639 303.4 434.508 303.935 434.508C304.243 434.508 304.548 434.56 304.849 434.662C305.149 434.765 305.423 434.932 305.67 435.164C305.917 435.392 306.113 435.696 306.26 436.073C306.406 436.451 306.48 436.916 306.48 437.469V437.855H301.915V437.068H305.554C305.554 436.734 305.487 436.436 305.354 436.174C305.223 435.912 305.035 435.705 304.791 435.553C304.549 435.401 304.264 435.325 303.935 435.325C303.573 435.325 303.259 435.415 302.994 435.595C302.732 435.773 302.53 436.004 302.389 436.289C302.248 436.575 302.177 436.881 302.177 437.207V437.731C302.177 438.179 302.254 438.558 302.408 438.869C302.565 439.177 302.782 439.412 303.06 439.574C303.337 439.734 303.66 439.813 304.028 439.813C304.267 439.813 304.482 439.78 304.675 439.713C304.871 439.644 305.039 439.541 305.18 439.405C305.322 439.266 305.431 439.094 305.508 438.888L306.387 439.135C306.295 439.433 306.139 439.695 305.921 439.921C305.702 440.145 305.432 440.32 305.111 440.446C304.79 440.569 304.428 440.631 304.028 440.631Z" fill="#5D5D5B"/>
<path d="M124.364 432.515V439.283H123.426L119.986 434.319H119.923V439.283H118.902V432.515H119.847L123.29 437.485H123.353V432.515H124.364ZM127.913 439.385C127.437 439.385 127.022 439.276 126.667 439.058C126.312 438.84 126.037 438.535 125.841 438.143C125.645 437.751 125.547 437.292 125.547 436.768C125.547 436.241 125.645 435.781 125.841 435.387C126.037 434.992 126.312 434.686 126.667 434.468C127.022 434.25 127.437 434.141 127.913 434.141C128.389 434.141 128.804 434.25 129.159 434.468C129.513 434.686 129.789 434.992 129.985 435.387C130.181 435.781 130.279 436.241 130.279 436.768C130.279 437.292 130.181 437.751 129.985 438.143C129.789 438.535 129.513 438.84 129.159 439.058C128.804 439.276 128.389 439.385 127.913 439.385ZM127.916 438.556C128.225 438.556 128.48 438.474 128.683 438.311C128.885 438.148 129.035 437.931 129.132 437.66C129.231 437.389 129.281 437.091 129.281 436.765C129.281 436.441 129.231 436.143 129.132 435.872C129.035 435.599 128.885 435.38 128.683 435.215C128.48 435.05 128.225 434.967 127.916 434.967C127.605 434.967 127.348 435.05 127.143 435.215C126.94 435.38 126.789 435.599 126.69 435.872C126.593 436.143 126.545 436.441 126.545 436.765C126.545 437.091 126.593 437.389 126.69 437.66C126.789 437.931 126.94 438.148 127.143 438.311C127.348 438.474 127.605 438.556 127.916 438.556ZM133.751 434.207V435H130.979V434.207H133.751ZM131.722 432.991H132.71V437.792C132.71 437.984 132.739 438.128 132.796 438.225C132.854 438.32 132.927 438.385 133.018 438.42C133.11 438.453 133.21 438.47 133.318 438.47C133.398 438.47 133.467 438.464 133.527 438.453C133.586 438.442 133.632 438.434 133.665 438.427L133.844 439.243C133.787 439.265 133.705 439.287 133.599 439.309C133.494 439.334 133.361 439.347 133.203 439.349C132.943 439.353 132.7 439.307 132.476 439.21C132.251 439.113 132.069 438.963 131.93 438.761C131.792 438.558 131.722 438.304 131.722 437.997V432.991ZM136.978 439.385C136.477 439.385 136.047 439.278 135.685 439.065C135.326 438.849 135.049 438.546 134.853 438.156C134.659 437.764 134.562 437.304 134.562 436.778C134.562 436.258 134.659 435.8 134.853 435.403C135.049 435.007 135.322 434.697 135.672 434.475C136.025 434.252 136.437 434.141 136.908 434.141C137.195 434.141 137.472 434.188 137.741 434.283C138.01 434.378 138.251 434.526 138.465 434.729C138.678 434.932 138.847 435.195 138.97 435.519C139.094 435.84 139.155 436.232 139.155 436.692V437.042H135.12V436.302H138.187C138.187 436.042 138.134 435.812 138.028 435.611C137.923 435.409 137.774 435.249 137.582 435.132C137.393 435.015 137.17 434.957 136.915 434.957C136.637 434.957 136.395 435.025 136.188 435.162C135.983 435.296 135.824 435.473 135.712 435.691C135.602 435.907 135.547 436.141 135.547 436.395V436.973C135.547 437.312 135.606 437.601 135.725 437.839C135.846 438.077 136.015 438.258 136.231 438.384C136.447 438.507 136.699 438.569 136.987 438.569C137.175 438.569 137.345 438.543 137.5 438.49C137.654 438.435 137.787 438.353 137.9 438.245C138.012 438.137 138.098 438.004 138.157 437.845L139.092 438.014C139.018 438.289 138.883 438.53 138.689 438.738C138.498 438.942 138.256 439.102 137.966 439.217C137.677 439.329 137.348 439.385 136.978 439.385Z" fill="#5D5D5B"/>
</g>
<path d="M272.287 233.093C271.706 233.093 271.211 232.935 270.802 232.619C270.394 232.3 270.082 231.839 269.866 231.235C269.65 230.628 269.542 229.896 269.542 229.037C269.542 228.184 269.65 227.455 269.866 226.851C270.084 226.245 270.398 225.782 270.806 225.463C271.218 225.142 271.711 224.981 272.287 224.981C272.863 224.981 273.355 225.142 273.763 225.463C274.175 225.782 274.488 226.245 274.704 226.851C274.923 227.455 275.032 228.184 275.032 229.037C275.032 229.896 274.924 230.628 274.708 231.235C274.492 231.839 274.18 232.3 273.771 232.619C273.362 232.935 272.868 233.093 272.287 233.093ZM272.287 232.245C272.863 232.245 273.31 231.967 273.629 231.412C273.947 230.857 274.107 230.065 274.107 229.037C274.107 228.353 274.033 227.771 273.887 227.291C273.743 226.81 273.535 226.444 273.262 226.192C272.992 225.94 272.667 225.814 272.287 225.814C271.716 225.814 271.27 226.095 270.949 226.658C270.628 227.219 270.467 228.012 270.467 229.037C270.467 229.721 270.539 230.302 270.683 230.78C270.827 231.258 271.034 231.622 271.304 231.871C271.576 232.12 271.904 232.245 272.287 232.245ZM279.689 232.985V225.089H282.45C283 225.089 283.453 225.184 283.811 225.374C284.168 225.562 284.434 225.815 284.609 226.134C284.784 226.45 284.871 226.801 284.871 227.187C284.871 227.526 284.811 227.806 284.69 228.027C284.572 228.248 284.415 228.423 284.219 228.551C284.027 228.68 283.817 228.775 283.591 228.837V228.914C283.833 228.929 284.075 229.014 284.32 229.168C284.564 229.322 284.768 229.543 284.933 229.831C285.097 230.119 285.179 230.471 285.179 230.888C285.179 231.284 285.089 231.64 284.91 231.956C284.73 232.272 284.446 232.522 284.057 232.708C283.669 232.893 283.164 232.985 282.542 232.985H279.689ZM280.645 232.137H282.542C283.167 232.137 283.61 232.016 283.872 231.774C284.137 231.53 284.27 231.235 284.27 230.888C284.27 230.62 284.201 230.374 284.065 230.148C283.929 229.919 283.735 229.736 283.483 229.6C283.231 229.461 282.933 229.392 282.589 229.392H280.645V232.137ZM280.645 228.559H282.419C282.707 228.559 282.966 228.503 283.198 228.389C283.432 228.276 283.617 228.117 283.753 227.911C283.892 227.706 283.961 227.464 283.961 227.187C283.961 226.84 283.84 226.545 283.599 226.304C283.357 226.059 282.974 225.937 282.45 225.937H280.645V228.559ZM286.319 225.937V225.089H292.241V225.937H289.758V232.985H288.802V225.937H286.319ZM299.741 227.557H298.785C298.729 227.282 298.63 227.04 298.488 226.832C298.35 226.624 298.18 226.449 297.979 226.307C297.782 226.164 297.562 226.056 297.32 225.984C297.079 225.912 296.827 225.876 296.565 225.876C296.086 225.876 295.653 225.996 295.265 226.238C294.88 226.48 294.573 226.836 294.344 227.306C294.118 227.776 294.005 228.353 294.005 229.037C294.005 229.721 294.118 230.298 294.344 230.768C294.573 231.239 294.88 231.595 295.265 231.836C295.653 232.078 296.086 232.199 296.565 232.199C296.827 232.199 297.079 232.163 297.32 232.091C297.562 232.019 297.782 231.912 297.979 231.771C298.18 231.627 298.35 231.451 298.488 231.242C298.63 231.032 298.729 230.79 298.785 230.518H299.741C299.669 230.921 299.538 231.282 299.348 231.601C299.158 231.92 298.922 232.191 298.639 232.415C298.356 232.636 298.039 232.804 297.686 232.92C297.337 233.035 296.963 233.093 296.565 233.093C295.891 233.093 295.292 232.929 294.768 232.6C294.244 232.271 293.831 231.803 293.53 231.196C293.23 230.59 293.079 229.87 293.079 229.037C293.079 228.204 293.23 227.485 293.53 226.878C293.831 226.271 294.244 225.804 294.768 225.475C295.292 225.146 295.891 224.981 296.565 224.981C296.963 224.981 297.337 225.039 297.686 225.155C298.039 225.27 298.356 225.44 298.639 225.664C298.922 225.885 299.158 226.155 299.348 226.473C299.538 226.789 299.669 227.151 299.741 227.557ZM304.278 228.652C304.273 228.225 304.343 227.882 304.487 227.622C304.633 227.363 304.823 227.174 305.057 227.055C305.294 226.937 305.543 226.878 305.805 226.878C306.067 226.878 306.305 226.937 306.518 227.055C306.734 227.171 306.985 227.348 307.27 227.587C307.463 227.749 307.615 227.865 307.725 227.934C307.838 228.001 307.964 228.035 308.103 228.035C308.327 228.035 308.503 227.955 308.631 227.796C308.76 227.636 308.82 227.402 308.812 227.094H309.645C309.655 227.521 309.587 227.864 309.441 228.123C309.294 228.383 309.103 228.572 308.866 228.69C308.63 228.808 308.381 228.867 308.118 228.867C307.856 228.867 307.617 228.812 307.401 228.702C307.185 228.589 306.936 228.407 306.653 228.158C306.468 227.996 306.318 227.882 306.202 227.815C306.087 227.746 305.959 227.711 305.821 227.711C305.612 227.711 305.44 227.783 305.304 227.927C305.168 228.071 305.103 228.312 305.111 228.652H304.278ZM304.278 230.98C304.273 230.554 304.343 230.21 304.487 229.951C304.633 229.691 304.823 229.502 305.057 229.384C305.294 229.266 305.543 229.207 305.805 229.207C306.067 229.207 306.305 229.266 306.518 229.384C306.734 229.5 306.985 229.677 307.27 229.916C307.463 230.078 307.615 230.194 307.725 230.263C307.838 230.33 307.964 230.363 308.103 230.363C308.327 230.363 308.503 230.284 308.631 230.124C308.76 229.965 308.82 229.731 308.812 229.423H309.645C309.655 229.849 309.587 230.192 309.441 230.452C309.294 230.712 309.103 230.901 308.866 231.019C308.63 231.137 308.381 231.196 308.118 231.196C307.856 231.196 307.617 231.141 307.401 231.03C307.185 230.917 306.936 230.736 306.653 230.487C306.468 230.325 306.318 230.21 306.202 230.144C306.087 230.074 305.959 230.04 305.821 230.04C305.612 230.04 305.44 230.112 305.304 230.255C305.168 230.399 305.103 230.641 305.111 230.98H304.278ZM316.74 233.972V224.102H317.372V233.972H316.74ZM318.868 227.063C318.822 226.672 318.634 226.369 318.305 226.153C317.976 225.937 317.573 225.829 317.095 225.829C316.745 225.829 316.439 225.886 316.177 225.999C315.918 226.112 315.715 226.268 315.568 226.466C315.424 226.663 315.352 226.888 315.352 227.14C315.352 227.351 315.402 227.532 315.502 227.684C315.605 227.833 315.736 227.958 315.896 228.058C316.055 228.156 316.222 228.236 316.397 228.301C316.572 228.362 316.732 228.413 316.879 228.451L317.681 228.667C317.886 228.721 318.115 228.796 318.367 228.891C318.622 228.986 318.864 229.116 319.096 229.28C319.33 229.442 319.522 229.65 319.674 229.905C319.826 230.159 319.902 230.471 319.902 230.841C319.902 231.268 319.79 231.654 319.566 231.998C319.345 232.343 319.021 232.616 318.595 232.819C318.17 233.022 317.655 233.124 317.049 233.124C316.483 233.124 315.993 233.033 315.58 232.85C315.168 232.668 314.844 232.413 314.608 232.087C314.374 231.76 314.242 231.381 314.211 230.949H315.198C315.224 231.248 315.324 231.494 315.499 231.69C315.676 231.882 315.9 232.026 316.169 232.121C316.442 232.214 316.735 232.26 317.049 232.26C317.413 232.26 317.741 232.201 318.032 232.083C318.322 231.962 318.552 231.795 318.722 231.582C318.891 231.366 318.976 231.114 318.976 230.826C318.976 230.564 318.903 230.351 318.756 230.186C318.61 230.022 318.417 229.888 318.178 229.785C317.939 229.682 317.681 229.592 317.403 229.515L316.432 229.238C315.815 229.06 315.326 228.807 314.967 228.478C314.607 228.149 314.427 227.719 314.427 227.187C314.427 226.744 314.546 226.359 314.785 226.03C315.027 225.698 315.351 225.441 315.757 225.259C316.166 225.074 316.622 224.981 317.126 224.981C317.635 224.981 318.087 225.072 318.483 225.255C318.879 225.435 319.192 225.682 319.423 225.995C319.657 226.309 319.781 226.665 319.794 227.063H318.868ZM323.91 233.093C323.329 233.093 322.835 232.935 322.426 232.619C322.017 232.3 321.705 231.839 321.489 231.235C321.273 230.628 321.165 229.896 321.165 229.037C321.165 228.184 321.273 227.455 321.489 226.851C321.707 226.245 322.021 225.782 322.43 225.463C322.841 225.142 323.334 224.981 323.91 224.981C324.486 224.981 324.978 225.142 325.387 225.463C325.798 225.782 326.112 226.245 326.328 226.851C326.546 227.455 326.655 228.184 326.655 229.037C326.655 229.896 326.547 230.628 326.331 231.235C326.116 231.839 325.803 232.3 325.395 232.619C324.986 232.935 324.491 233.093 323.91 233.093ZM323.91 232.245C324.486 232.245 324.933 231.967 325.252 231.412C325.571 230.857 325.73 230.065 325.73 229.037C325.73 228.353 325.657 227.771 325.51 227.291C325.366 226.81 325.158 226.444 324.886 226.192C324.616 225.94 324.291 225.814 323.91 225.814C323.34 225.814 322.894 226.095 322.572 226.658C322.251 227.219 322.09 228.012 322.09 229.037C322.09 229.721 322.162 230.302 322.306 230.78C322.45 231.258 322.657 231.622 322.927 231.871C323.2 232.12 323.527 232.245 323.91 232.245ZM328.523 233.047C328.333 233.047 328.17 232.979 328.034 232.842C327.897 232.706 327.829 232.543 327.829 232.353C327.829 232.163 327.897 231.999 328.034 231.863C328.17 231.727 328.333 231.659 328.523 231.659C328.713 231.659 328.877 231.727 329.013 231.863C329.149 231.999 329.217 232.163 329.217 232.353C329.217 232.479 329.185 232.594 329.121 232.7C329.059 232.805 328.976 232.89 328.87 232.954C328.767 233.016 328.652 233.047 328.523 233.047ZM333.134 233.093C332.554 233.093 332.059 232.935 331.65 232.619C331.241 232.3 330.929 231.839 330.713 231.235C330.497 230.628 330.389 229.896 330.389 229.037C330.389 228.184 330.497 227.455 330.713 226.851C330.932 226.245 331.245 225.782 331.654 225.463C332.065 225.142 332.559 224.981 333.134 224.981C333.71 224.981 334.202 225.142 334.611 225.463C335.022 225.782 335.336 226.245 335.552 226.851C335.77 227.455 335.879 228.184 335.879 229.037C335.879 229.896 335.772 230.628 335.556 231.235C335.34 231.839 335.027 232.3 334.619 232.619C334.21 232.935 333.715 233.093 333.134 233.093ZM333.134 232.245C333.71 232.245 334.157 231.967 334.476 231.412C334.795 230.857 334.954 230.065 334.954 229.037C334.954 228.353 334.881 227.771 334.734 227.291C334.59 226.81 334.382 226.444 334.11 226.192C333.84 225.94 333.515 225.814 333.134 225.814C332.564 225.814 332.118 226.095 331.797 226.658C331.475 227.219 331.315 228.012 331.315 229.037C331.315 229.721 331.387 230.302 331.531 230.78C331.674 231.258 331.881 231.622 332.151 231.871C332.424 232.12 332.751 232.245 333.134 232.245ZM339.92 233.093C339.339 233.093 338.844 232.935 338.436 232.619C338.027 232.3 337.715 231.839 337.499 231.235C337.283 230.628 337.175 229.896 337.175 229.037C337.175 228.184 337.283 227.455 337.499 226.851C337.717 226.245 338.031 225.782 338.439 225.463C338.851 225.142 339.344 224.981 339.92 224.981C340.496 224.981 340.988 225.142 341.397 225.463C341.808 225.782 342.121 226.245 342.337 226.851C342.556 227.455 342.665 228.184 342.665 229.037C342.665 229.896 342.557 230.628 342.341 231.235C342.125 231.839 341.813 232.3 341.404 232.619C340.996 232.935 340.501 233.093 339.92 233.093ZM339.92 232.245C340.496 232.245 340.943 231.967 341.262 231.412C341.58 230.857 341.74 230.065 341.74 229.037C341.74 228.353 341.666 227.771 341.52 227.291C341.376 226.81 341.168 226.444 340.895 226.192C340.626 225.94 340.3 225.814 339.92 225.814C339.349 225.814 338.903 226.095 338.582 226.658C338.261 227.219 338.1 228.012 338.1 229.037C338.1 229.721 338.172 230.302 338.316 230.78C338.46 231.258 338.667 231.622 338.937 231.871C339.209 232.12 339.537 232.245 339.92 232.245Z" fill="#5D5D5B"/>
<path d="M222.732 214.199V174.72H225.261V214.199H222.732ZM228.823 188.137C228.721 187.006 228.263 186.127 227.451 185.5C226.649 184.862 225.503 184.543 224.012 184.543C223.025 184.543 222.202 184.672 221.544 184.929C220.886 185.186 220.393 185.541 220.064 185.993C219.735 186.435 219.565 186.944 219.555 187.52C219.534 187.993 219.627 188.409 219.832 188.769C220.048 189.129 220.357 189.447 220.758 189.725C221.169 189.992 221.663 190.229 222.238 190.434C222.814 190.64 223.462 190.82 224.181 190.974L226.896 191.591C228.458 191.93 229.836 192.383 231.029 192.948C232.232 193.514 233.239 194.187 234.051 194.968C234.874 195.75 235.496 196.649 235.917 197.667C236.339 198.685 236.555 199.826 236.565 201.091C236.555 203.085 236.051 204.797 235.054 206.226C234.056 207.655 232.622 208.75 230.751 209.511C228.89 210.272 226.644 210.652 224.012 210.652C221.369 210.652 219.067 210.257 217.103 209.465C215.139 208.673 213.612 207.47 212.523 205.856C211.433 204.242 210.872 202.201 210.842 199.734H218.151C218.213 200.752 218.486 201.6 218.969 202.278C219.452 202.957 220.115 203.471 220.958 203.821C221.812 204.17 222.799 204.345 223.919 204.345C224.947 204.345 225.821 204.206 226.541 203.929C227.271 203.651 227.831 203.265 228.222 202.772C228.613 202.278 228.813 201.713 228.823 201.076C228.813 200.479 228.628 199.97 228.268 199.549C227.908 199.117 227.353 198.747 226.603 198.438C225.862 198.12 224.917 197.827 223.765 197.559L220.465 196.788C217.73 196.161 215.576 195.148 214.003 193.75C212.43 192.342 211.649 190.44 211.659 188.044C211.649 186.091 212.173 184.379 213.232 182.909C214.291 181.438 215.756 180.292 217.627 179.47C219.498 178.647 221.632 178.236 224.027 178.236C226.474 178.236 228.597 178.652 230.396 179.485C232.206 180.308 233.609 181.464 234.607 182.955C235.604 184.446 236.113 186.173 236.133 188.137H228.823ZM252.372 210.683C249.967 210.683 247.833 210.272 245.972 209.45C244.122 208.617 242.662 207.47 241.593 206.01C240.523 204.551 239.978 202.87 239.958 200.968H247.638C247.669 201.656 247.89 202.268 248.301 202.803C248.712 203.327 249.273 203.738 249.982 204.036C250.691 204.335 251.498 204.484 252.403 204.484C253.308 204.484 254.105 204.324 254.794 204.006C255.493 203.677 256.038 203.229 256.428 202.664C256.819 202.088 257.009 201.43 256.999 200.69C257.009 199.95 256.798 199.292 256.367 198.716C255.935 198.14 255.323 197.693 254.531 197.374C253.75 197.056 252.825 196.896 251.756 196.896H248.687V191.468H251.756C252.691 191.468 253.514 191.314 254.223 191.005C254.943 190.697 255.503 190.265 255.904 189.71C256.305 189.144 256.5 188.496 256.49 187.767C256.5 187.057 256.331 186.435 255.981 185.9C255.642 185.356 255.164 184.934 254.547 184.636C253.94 184.338 253.236 184.189 252.434 184.189C251.591 184.189 250.825 184.338 250.136 184.636C249.458 184.934 248.918 185.356 248.517 185.9C248.116 186.445 247.905 187.078 247.885 187.797H240.59C240.611 185.916 241.135 184.261 242.163 182.832C243.191 181.392 244.59 180.266 246.358 179.454C248.137 178.642 250.162 178.236 252.434 178.236C254.696 178.236 256.685 178.632 258.402 179.423C260.119 180.215 261.456 181.295 262.412 182.662C263.368 184.019 263.846 185.556 263.846 187.273C263.856 189.052 263.276 190.517 262.104 191.668C260.942 192.82 259.446 193.529 257.616 193.796V194.043C260.063 194.331 261.908 195.123 263.152 196.418C264.407 197.714 265.029 199.333 265.018 201.276C265.018 203.106 264.478 204.73 263.399 206.149C262.33 207.558 260.839 208.668 258.927 209.48C257.025 210.282 254.84 210.683 252.372 210.683ZM281.415 210.683C279.112 210.683 277.067 210.267 275.278 209.434C273.489 208.601 272.075 207.455 271.037 205.995C270.008 204.535 269.474 202.859 269.433 200.968H276.835C276.897 202.129 277.37 203.065 278.254 203.774C279.138 204.473 280.192 204.823 281.415 204.823C282.372 204.823 283.22 204.612 283.96 204.191C284.7 203.769 285.281 203.178 285.703 202.417C286.124 201.646 286.33 200.762 286.32 199.765C286.33 198.747 286.119 197.857 285.687 197.097C285.266 196.336 284.68 195.745 283.929 195.323C283.189 194.891 282.336 194.675 281.369 194.675C280.454 194.665 279.585 194.866 278.763 195.277C277.951 195.688 277.334 196.248 276.912 196.958L270.173 195.693L271.546 178.668H291.81V184.821H277.822L277.097 192.27H277.282C277.807 191.396 278.65 190.676 279.812 190.111C280.984 189.535 282.315 189.247 283.806 189.247C285.698 189.247 287.384 189.689 288.864 190.573C290.355 191.447 291.527 192.66 292.38 194.213C293.244 195.765 293.676 197.544 293.676 199.549C293.676 201.718 293.162 203.641 292.134 205.316C291.116 206.992 289.687 208.308 287.846 209.264C286.016 210.21 283.873 210.683 281.415 210.683ZM310.929 211.023C308.174 211.023 305.799 210.37 303.804 209.064C301.809 207.748 300.272 205.861 299.193 203.404C298.113 200.937 297.579 197.971 297.589 194.506C297.599 191.041 298.139 188.101 299.208 185.685C300.288 183.258 301.82 181.413 303.804 180.148C305.799 178.873 308.174 178.236 310.929 178.236C313.684 178.236 316.059 178.873 318.054 180.148C320.059 181.413 321.601 183.258 322.68 185.685C323.76 188.111 324.294 191.051 324.284 194.506C324.284 197.981 323.744 200.952 322.665 203.42C321.585 205.887 320.048 207.774 318.054 209.079C316.069 210.375 313.695 211.023 310.929 211.023ZM310.929 204.777C312.574 204.777 313.905 203.939 314.923 202.263C315.941 200.577 316.445 197.991 316.434 194.506C316.434 192.223 316.203 190.342 315.74 188.861C315.278 187.371 314.635 186.26 313.813 185.53C312.99 184.8 312.029 184.435 310.929 184.435C309.294 184.435 307.973 185.263 306.965 186.918C305.958 188.563 305.449 191.092 305.439 194.506C305.428 196.819 305.649 198.737 306.102 200.258C306.565 201.78 307.212 202.916 308.045 203.666C308.878 204.407 309.839 204.777 310.929 204.777ZM331.602 210.699C330.491 210.699 329.54 210.308 328.749 209.527C327.967 208.745 327.582 207.799 327.592 206.689C327.582 205.599 327.967 204.669 328.749 203.898C329.54 203.116 330.491 202.726 331.602 202.726C332.65 202.726 333.576 203.116 334.378 203.898C335.19 204.669 335.601 205.599 335.611 206.689C335.601 207.429 335.406 208.103 335.025 208.709C334.655 209.316 334.167 209.799 333.56 210.159C332.964 210.519 332.311 210.699 331.602 210.699ZM352.236 211.023C349.481 211.023 347.106 210.37 345.111 209.064C343.117 207.748 341.58 205.861 340.5 203.404C339.421 200.937 338.886 197.971 338.896 194.506C338.907 191.041 339.446 188.101 340.516 185.685C341.595 183.258 343.127 181.413 345.111 180.148C347.106 178.873 349.481 178.236 352.236 178.236C354.991 178.236 357.366 178.873 359.361 180.148C361.366 181.413 362.908 183.258 363.987 185.685C365.067 188.111 365.602 191.051 365.591 194.506C365.591 197.981 365.052 200.952 363.972 203.42C362.893 205.887 361.356 207.774 359.361 209.079C357.377 210.375 355.002 211.023 352.236 211.023ZM352.236 204.777C353.881 204.777 355.212 203.939 356.23 202.263C357.248 200.577 357.752 197.991 357.742 194.506C357.742 192.223 357.51 190.342 357.048 188.861C356.585 187.371 355.942 186.26 355.12 185.53C354.297 184.8 353.336 184.435 352.236 184.435C350.601 184.435 349.28 185.263 348.273 186.918C347.265 188.563 346.756 191.092 346.746 194.506C346.736 196.819 346.957 198.737 347.409 200.258C347.872 201.78 348.519 202.916 349.352 203.666C350.185 204.407 351.146 204.777 352.236 204.777ZM383.026 211.023C380.27 211.023 377.895 210.37 375.901 209.064C373.906 207.748 372.369 205.861 371.29 203.404C370.21 200.937 369.676 197.971 369.686 194.506C369.696 191.041 370.236 188.101 371.305 185.685C372.385 183.258 373.917 181.413 375.901 180.148C377.895 178.873 380.27 178.236 383.026 178.236C385.781 178.236 388.156 178.873 390.151 180.148C392.155 181.413 393.698 183.258 394.777 185.685C395.857 188.111 396.391 191.051 396.381 194.506C396.381 197.981 395.841 200.952 394.762 203.42C393.682 205.887 392.145 207.774 390.151 209.079C388.166 210.375 385.791 211.023 383.026 211.023ZM383.026 204.777C384.671 204.777 386.002 203.939 387.02 202.263C388.038 200.577 388.542 197.991 388.531 194.506C388.531 192.223 388.3 190.342 387.837 188.861C387.375 187.371 386.732 186.26 385.91 185.53C385.087 184.8 384.126 184.435 383.026 184.435C381.391 184.435 380.07 185.263 379.062 186.918C378.055 188.563 377.546 191.092 377.535 194.506C377.525 196.819 377.746 198.737 378.199 200.258C378.661 201.78 379.309 202.916 380.142 203.666C380.975 204.407 381.936 204.777 383.026 204.777Z" fill="black"/>
<rect x="474.11" y="182.986" width="40.3257" height="40.3257" rx="6.20396" stroke="#CFDBD5" stroke-opacity="0.6" stroke-width="1.16126" stroke-linecap="square"/>
<path d="M491.554 201.248L488.566 204.236L491.554 207.224V204.974H496.827V203.498H491.554V201.248ZM502.066 199.736L499.077 196.748V198.998H493.804V200.474H499.077V202.724L502.066 199.736Z" fill="black"/>
<path d="M239.136 99.9291C239.136 96.5027 241.913 93.7251 245.34 93.7251H298.073C301.5 93.7251 304.277 96.5027 304.277 99.9291V115.439C304.277 118.865 301.5 121.643 298.073 121.643H245.34C241.913 121.643 239.136 118.865 239.136 115.439V99.9291Z" fill="black"/>
<path d="M263.795 105.924C263.768 105.658 263.655 105.45 263.454 105.303C263.254 105.155 262.982 105.081 262.638 105.081C262.405 105.081 262.208 105.114 262.047 105.181C261.886 105.244 261.762 105.334 261.677 105.448C261.593 105.563 261.551 105.693 261.551 105.838C261.547 105.959 261.572 106.065 261.627 106.155C261.684 106.246 261.762 106.324 261.862 106.39C261.961 106.454 262.075 106.51 262.205 106.559C262.335 106.605 262.474 106.645 262.622 106.678L263.23 106.823C263.525 106.889 263.796 106.977 264.043 107.087C264.289 107.197 264.503 107.333 264.684 107.494C264.864 107.655 265.004 107.844 265.104 108.062C265.205 108.28 265.257 108.53 265.259 108.812C265.257 109.227 265.151 109.586 264.942 109.89C264.734 110.192 264.435 110.426 264.043 110.594C263.653 110.759 263.182 110.841 262.632 110.841C262.085 110.841 261.609 110.758 261.204 110.59C260.801 110.423 260.486 110.175 260.259 109.847C260.034 109.516 259.916 109.108 259.905 108.621H261.29C261.305 108.848 261.37 109.037 261.485 109.189C261.602 109.339 261.757 109.452 261.951 109.529C262.147 109.604 262.368 109.642 262.615 109.642C262.857 109.642 263.068 109.607 263.246 109.536C263.427 109.466 263.567 109.368 263.666 109.242C263.765 109.116 263.815 108.972 263.815 108.809C263.815 108.657 263.77 108.529 263.679 108.426C263.591 108.322 263.461 108.234 263.289 108.161C263.12 108.089 262.911 108.023 262.665 107.963L261.928 107.778C261.357 107.639 260.907 107.422 260.576 107.127C260.246 106.832 260.082 106.434 260.084 105.934C260.082 105.524 260.191 105.166 260.411 104.86C260.633 104.554 260.939 104.315 261.326 104.143C261.714 103.971 262.155 103.885 262.648 103.885C263.15 103.885 263.589 103.971 263.963 104.143C264.34 104.315 264.633 104.554 264.842 104.86C265.052 105.166 265.16 105.521 265.166 105.924H263.795ZM268.508 110.845C267.986 110.845 267.537 110.739 267.16 110.527C266.785 110.314 266.497 110.012 266.294 109.622C266.091 109.23 265.99 108.766 265.99 108.231C265.99 107.709 266.091 107.25 266.294 106.856C266.497 106.462 266.782 106.154 267.15 105.934C267.52 105.714 267.954 105.604 268.452 105.604C268.787 105.604 269.099 105.658 269.387 105.765C269.678 105.871 269.931 106.031 270.147 106.245C270.365 106.458 270.535 106.727 270.656 107.051C270.777 107.373 270.838 107.749 270.838 108.181V108.568H266.552V107.695H269.513C269.513 107.493 269.469 107.313 269.381 107.157C269.292 107 269.17 106.878 269.014 106.79C268.86 106.7 268.68 106.654 268.475 106.654C268.261 106.654 268.072 106.704 267.907 106.803C267.744 106.9 267.616 107.031 267.523 107.196C267.431 107.359 267.383 107.541 267.381 107.742V108.571C267.381 108.822 267.428 109.039 267.52 109.222C267.615 109.405 267.748 109.546 267.92 109.645C268.092 109.744 268.296 109.794 268.531 109.794C268.688 109.794 268.831 109.772 268.961 109.728C269.091 109.684 269.202 109.618 269.295 109.529C269.387 109.441 269.458 109.333 269.506 109.206L270.808 109.292C270.742 109.604 270.607 109.878 270.402 110.111C270.199 110.342 269.937 110.523 269.615 110.653C269.296 110.781 268.927 110.845 268.508 110.845ZM273.164 107.811V110.746H271.757V105.67H273.098V106.565H273.158C273.27 106.27 273.459 106.036 273.723 105.865C273.987 105.691 274.308 105.604 274.685 105.604C275.037 105.604 275.344 105.681 275.607 105.835C275.869 105.989 276.073 106.209 276.218 106.496C276.363 106.78 276.436 107.119 276.436 107.514V110.746H275.028V107.765C275.03 107.454 274.951 107.212 274.79 107.038C274.629 106.862 274.408 106.773 274.126 106.773C273.937 106.773 273.769 106.814 273.624 106.896C273.481 106.977 273.368 107.096 273.287 107.253C273.207 107.407 273.167 107.593 273.164 107.811ZM279.416 110.828C279.03 110.828 278.681 110.729 278.368 110.531C278.058 110.33 277.811 110.036 277.628 109.648C277.448 109.259 277.357 108.78 277.357 108.214C277.357 107.633 277.451 107.149 277.638 106.763C277.825 106.376 278.074 106.086 278.385 105.894C278.698 105.7 279.04 105.604 279.413 105.604C279.697 105.604 279.934 105.652 280.123 105.749C280.315 105.844 280.469 105.963 280.586 106.106C280.705 106.247 280.795 106.386 280.857 106.522H280.9V103.978H282.304V110.746H280.916V109.933H280.857C280.791 110.074 280.697 110.214 280.576 110.352C280.457 110.489 280.302 110.602 280.11 110.693C279.921 110.783 279.689 110.828 279.416 110.828ZM279.862 109.708C280.089 109.708 280.281 109.646 280.437 109.523C280.596 109.397 280.717 109.222 280.801 108.997C280.887 108.773 280.93 108.509 280.93 108.208C280.93 107.906 280.888 107.644 280.804 107.421C280.72 107.199 280.599 107.027 280.44 106.906C280.282 106.784 280.089 106.724 279.862 106.724C279.631 106.724 279.436 106.787 279.277 106.912C279.119 107.038 278.999 107.212 278.917 107.434C278.836 107.657 278.795 107.915 278.795 108.208C278.795 108.503 278.836 108.764 278.917 108.991C279.001 109.216 279.121 109.392 279.277 109.52C279.436 109.645 279.631 109.708 279.862 109.708Z" fill="white"/>
<path d="M337.118 110.705V103.937H339.788C340.299 103.937 340.735 104.028 341.097 104.211C341.46 104.392 341.737 104.648 341.926 104.981C342.118 105.311 342.214 105.7 342.214 106.147C342.214 106.597 342.117 106.984 341.923 107.307C341.729 107.629 341.448 107.876 341.08 108.048C340.714 108.219 340.272 108.305 339.752 108.305H337.964V107.155H339.52C339.794 107.155 340.021 107.118 340.201 107.043C340.382 106.968 340.516 106.856 340.604 106.706C340.695 106.556 340.74 106.37 340.74 106.147C340.74 105.923 340.695 105.733 340.604 105.579C340.516 105.425 340.381 105.308 340.198 105.229C340.017 105.147 339.789 105.106 339.514 105.106H338.549V110.705H337.118ZM340.773 107.625L342.455 110.705H340.875L339.23 107.625H340.773ZM345.43 110.804C344.908 110.804 344.458 110.698 344.082 110.486C343.707 110.273 343.419 109.971 343.216 109.581C343.013 109.189 342.912 108.725 342.912 108.19C342.912 107.668 343.013 107.209 343.216 106.815C343.419 106.421 343.704 106.113 344.072 105.893C344.442 105.673 344.876 105.563 345.374 105.563C345.709 105.563 346.02 105.617 346.309 105.724C346.6 105.83 346.853 105.99 347.069 106.204C347.287 106.417 347.457 106.686 347.578 107.01C347.699 107.332 347.76 107.708 347.76 108.14V108.527H343.474V107.654H346.435C346.435 107.452 346.391 107.272 346.302 107.116C346.214 106.959 346.092 106.837 345.936 106.749C345.781 106.659 345.602 106.613 345.397 106.613C345.183 106.613 344.994 106.663 344.829 106.762C344.665 106.859 344.538 106.99 344.445 107.155C344.353 107.318 344.305 107.5 344.303 107.701V108.53C344.303 108.781 344.349 108.998 344.442 109.181C344.537 109.364 344.67 109.505 344.842 109.604C345.014 109.703 345.217 109.753 345.453 109.753C345.61 109.753 345.753 109.731 345.883 109.687C346.013 109.643 346.124 109.577 346.216 109.488C346.309 109.4 346.38 109.292 346.428 109.165L347.73 109.251C347.664 109.563 347.528 109.837 347.324 110.07C347.121 110.301 346.859 110.482 346.537 110.612C346.218 110.74 345.849 110.804 345.43 110.804ZM350.972 110.804C350.452 110.804 350.005 110.694 349.63 110.473C349.258 110.251 348.971 109.942 348.771 109.548C348.573 109.154 348.474 108.7 348.474 108.186C348.474 107.667 348.574 107.21 348.774 106.818C348.977 106.424 349.264 106.117 349.637 105.896C350.009 105.674 350.452 105.563 350.965 105.563C351.408 105.563 351.796 105.643 352.129 105.804C352.461 105.965 352.724 106.19 352.918 106.481C353.112 106.772 353.219 107.114 353.239 107.506H351.91C351.873 107.252 351.774 107.049 351.613 106.894C351.454 106.738 351.246 106.66 350.988 106.66C350.77 106.66 350.58 106.719 350.417 106.838C350.256 106.955 350.13 107.126 350.04 107.35C349.95 107.575 349.904 107.847 349.904 108.167C349.904 108.49 349.949 108.766 350.037 108.993C350.127 109.22 350.254 109.393 350.417 109.512C350.58 109.631 350.77 109.69 350.988 109.69C351.149 109.69 351.294 109.657 351.421 109.591C351.551 109.525 351.658 109.429 351.742 109.303C351.828 109.176 351.884 109.023 351.91 108.844H353.239C353.217 109.232 353.111 109.573 352.922 109.869C352.734 110.162 352.476 110.391 352.145 110.556C351.815 110.721 351.424 110.804 350.972 110.804ZM354.14 110.705V105.629H355.548V110.705H354.14ZM354.847 104.974C354.638 104.974 354.459 104.905 354.309 104.766C354.161 104.625 354.087 104.457 354.087 104.26C354.087 104.067 354.161 103.9 354.309 103.761C354.459 103.62 354.638 103.55 354.847 103.55C355.057 103.55 355.235 103.62 355.383 103.761C355.533 103.9 355.608 104.067 355.608 104.26C355.608 104.457 355.533 104.625 355.383 104.766C355.235 104.905 355.057 104.974 354.847 104.974ZM358.989 110.804C358.467 110.804 358.017 110.698 357.641 110.486C357.266 110.273 356.978 109.971 356.775 109.581C356.572 109.189 356.471 108.725 356.471 108.19C356.471 107.668 356.572 107.209 356.775 106.815C356.978 106.421 357.263 106.113 357.631 105.893C358.001 105.673 358.435 105.563 358.933 105.563C359.268 105.563 359.579 105.617 359.868 105.724C360.159 105.83 360.412 105.99 360.628 106.204C360.846 106.417 361.016 106.686 361.137 107.01C361.258 107.332 361.319 107.708 361.319 108.14V108.527H357.033V107.654H359.994C359.994 107.452 359.95 107.272 359.861 107.116C359.773 106.959 359.651 106.837 359.495 106.749C359.34 106.659 359.161 106.613 358.956 106.613C358.742 106.613 358.553 106.663 358.388 106.762C358.225 106.859 358.097 106.99 358.004 107.155C357.912 107.318 357.864 107.5 357.862 107.701V108.53C357.862 108.781 357.908 108.998 358.001 109.181C358.096 109.364 358.229 109.505 358.401 109.604C358.573 109.703 358.776 109.753 359.012 109.753C359.169 109.753 359.312 109.731 359.442 109.687C359.572 109.643 359.683 109.577 359.776 109.488C359.868 109.4 359.939 109.292 359.987 109.165L361.289 109.251C361.223 109.563 361.087 109.837 360.883 110.07C360.68 110.301 360.418 110.482 360.096 110.612C359.777 110.74 359.408 110.804 358.989 110.804ZM366.833 105.629L365.059 110.705H363.473L361.698 105.629H363.185L364.239 109.26H364.292L365.343 105.629H366.833ZM369.704 110.804C369.181 110.804 368.732 110.698 368.355 110.486C367.981 110.273 367.692 109.971 367.489 109.581C367.287 109.189 367.185 108.725 367.185 108.19C367.185 107.668 367.287 107.209 367.489 106.815C367.692 106.421 367.977 106.113 368.345 105.893C368.715 105.673 369.149 105.563 369.647 105.563C369.982 105.563 370.294 105.617 370.583 105.724C370.873 105.83 371.127 105.99 371.343 106.204C371.561 106.417 371.73 106.686 371.852 107.01C371.973 107.332 372.033 107.708 372.033 108.14V108.527H367.747V107.654H370.708C370.708 107.452 370.664 107.272 370.576 107.116C370.488 106.959 370.366 106.837 370.209 106.749C370.055 106.659 369.875 106.613 369.671 106.613C369.457 106.613 369.267 106.663 369.102 106.762C368.939 106.859 368.811 106.99 368.719 107.155C368.626 107.318 368.579 107.5 368.577 107.701V108.53C368.577 108.781 368.623 108.998 368.715 109.181C368.81 109.364 368.943 109.505 369.115 109.604C369.287 109.703 369.491 109.753 369.727 109.753C369.883 109.753 370.026 109.731 370.156 109.687C370.286 109.643 370.398 109.577 370.49 109.488C370.583 109.4 370.653 109.292 370.702 109.165L372.004 109.251C371.938 109.563 371.802 109.837 371.597 110.07C371.394 110.301 371.132 110.482 370.811 110.612C370.491 110.74 370.122 110.804 369.704 110.804Z" fill="black"/>
</g>
<defs>
<filter id="filter0_dd_76_3895" x="61.6919" y="66.5772" width="487.056" height="511.443" filterUnits="userSpaceOnUse" color-interpolation-filters="sRGB">
<feFlood flood-opacity="0" result="BackgroundImageFix"/>
<feColorMatrix in="SourceAlpha" type="matrix" values="0 0 0 0 0 0 0 0 0 0 0 0 0 0 0 0 0 0 127 0" result="hardAlpha"/>
<feOffset dy="7.9602"/>
<feGaussianBlur stdDeviation="7.9602"/>
<feColorMatrix type="matrix" values="0 0 0 0 0 0 0 0 0 0 0 0 0 0 0 0 0 0 0.08 0"/>
<feBlend mode="normal" in2="BackgroundImageFix" result="effect1_dropShadow_76_3895"/>
<feColorMatrix in="SourceAlpha" type="matrix" values="0 0 0 0 0 0 0 0 0 0 0 0 0 0 0 0 0 0 127 0" result="hardAlpha"/>
<feOffset/>
<feGaussianBlur stdDeviation="1.99005"/>
<feColorMatrix type="matrix" values="0 0 0 0 0 0 0 0 0 0 0 0 0 0 0 0 0 0 0.04 0"/>
<feBlend mode="normal" in2="effect1_dropShadow_76_3895" result="effect2_dropShadow_76_3895"/>
<feBlend mode="normal" in="SourceGraphic" in2="effect2_dropShadow_76_3895" result="shape"/>
</filter>
<linearGradient id="paint0_linear_76_3895" x1="328.856" y1="9.8607" x2="549.254" y2="278.517" gradientUnits="userSpaceOnUse">
<stop stop-color="#6FD6BD"/>
<stop offset="1" stop-color="#6FD6BD" stop-opacity="0"/>
</linearGradient>
<linearGradient id="paint1_linear_76_3895" x1="305.97" y1="635.731" x2="-68.1592" y2="435.731" gradientUnits="userSpaceOnUse">
<stop stop-color="#3E8BF3"/>
<stop offset="1" stop-color="#3E8BF3" stop-opacity="0"/>
</linearGradient>
<clipPath id="clip0_76_3895">
<rect width="600" height="644" fill="white" transform="translate(0 -18)"/>
</clipPath>
<clipPath id="clip1_76_3895">
<rect width="191.547" height="16.2854" fill="white" transform="translate(118.158 369.57)"/>
</clipPath>
<clipPath id="clip2_76_3895">
<rect width="386.972" height="40.3257" fill="white" transform="translate(118.158 298.224)"/>
</clipPath>
<clipPath id="clip3_76_3895">
<rect width="189.996" height="16.2854" fill="white" transform="translate(118.158 428.507)"/>
</clipPath>
</defs>
</svg>
